<svg width="188" height="43" viewBox="0 0 188 43" fill="none" xmlns="http://www.w3.org/2000/svg">
<path d="M167.081 0.57959H21.2474C9.74146 0.57959 0.414062 9.90699 0.414062 21.4129C0.414062 32.9189 9.74146 42.2463 21.2474 42.2463H167.081C178.587 42.2463 187.914 32.9189 187.914 21.4129C187.914 9.90699 178.587 0.57959 167.081 0.57959Z" fill="#02B14F"/>
<path d="M31.5566 17.0257H35.4441C37.7025 17.0257 38.79 18.2423 38.79 19.8131C38.79 21.1381 37.9775 21.8047 37.0025 22.0506V22.1547C38.0525 22.2131 39.2066 23.1381 39.2066 24.7798C39.2066 26.4214 38.0941 27.634 35.6275 27.634H31.5608V17.0215L31.5566 17.0257ZM35.3025 21.6173C36.3816 21.6173 37.2191 20.9632 37.2191 19.9382C37.2191 19.059 36.6108 18.3882 35.3441 18.3882H33.1566V21.6173H35.3025ZM35.4691 26.2631C37.0066 26.2631 37.615 25.5965 37.615 24.7048C37.615 23.6965 36.8108 22.8673 35.5275 22.8673H33.1608V26.2673H35.4733L35.4691 26.2631Z" fill="white"/>
<path d="M40.598 25.3882C40.598 23.5799 42.1439 23.1841 43.6481 23.0091C45.0772 22.8424 45.6605 22.8549 45.6605 22.2882V22.2507C45.6605 21.3507 45.148 20.8257 44.148 20.8257C43.148 20.8257 42.5272 21.3716 42.2981 21.9341L40.8397 21.6008C41.3564 20.1508 42.6856 19.5674 44.1231 19.5674C45.3856 19.5674 47.2106 20.03 47.2106 22.3466V27.6299H45.6981V26.5424H45.6356C45.3397 27.1382 44.5981 27.8049 43.2814 27.8049C41.7689 27.8049 40.5939 26.9465 40.5939 25.3799L40.598 25.3882ZM45.6647 24.7674V23.7424C45.4397 23.9632 44.2481 24.1007 43.7481 24.1674C42.8522 24.2882 42.1147 24.5841 42.1147 25.4091C42.1147 26.1757 42.748 26.5716 43.623 26.5716C44.9147 26.5716 45.6647 25.7132 45.6647 24.7674Z" fill="white"/>
<path d="M49.2275 28.9838L50.5608 28.4338C50.8358 28.888 51.34 29.538 52.6275 29.538C53.8025 29.538 54.6608 29.0005 54.6608 27.7505V26.1838H54.5608C54.2816 26.6922 53.715 27.5172 52.2567 27.5172C50.3775 27.5172 48.9316 26.1629 48.9316 23.6254C48.9316 21.0879 50.3483 19.5713 52.2691 19.5713C53.7525 19.5713 54.3025 20.4713 54.5733 20.9672H54.6858V19.6755H56.2025V27.8088C56.2025 29.8546 54.64 30.7839 52.6108 30.7839C50.7108 30.7839 49.6483 29.9547 49.2275 28.9797V28.9838ZM54.6733 23.6046C54.6733 21.9921 53.9483 20.888 52.5942 20.888C51.24 20.888 50.49 22.0754 50.49 23.6046C50.49 25.1338 51.2108 26.2296 52.5942 26.2296C53.9775 26.2296 54.6733 25.2463 54.6733 23.6046Z" fill="white"/>
<path d="M58.0781 17.5297C58.0781 17.0214 58.5198 16.6006 59.0573 16.6006C59.5948 16.6006 60.0364 17.0214 60.0364 17.5297C60.0364 18.0381 59.5906 18.4506 59.0573 18.4506C58.5239 18.4506 58.0781 18.0339 58.0781 17.5297ZM58.2739 19.6797H59.8239V27.6381H58.2739V19.6797Z" fill="white"/>
<path d="M61.9062 17.0254H63.4563V23.0462H63.5896L66.7604 19.6795H68.6146L65.3896 23.0962L68.8312 27.642H66.9313L64.2271 24.0462L63.4563 24.817V27.642H61.9062V17.0296V17.0254Z" fill="white"/>
<path d="M69.6487 25.3882C69.6487 23.5799 71.1945 23.1841 72.6987 23.0091C74.1278 22.8424 74.7112 22.8549 74.7112 22.2882V22.2507C74.7112 21.3507 74.1987 20.8257 73.1987 20.8257C72.1987 20.8257 71.5779 21.3716 71.3487 21.9341L69.8904 21.6008C70.407 20.1508 71.7362 19.5674 73.1737 19.5674C74.4362 19.5674 76.2612 20.03 76.2612 22.3466V27.6299H74.7487V26.5424H74.6862C74.3904 27.1382 73.6487 27.8049 72.332 27.8049C70.8195 27.8049 69.6445 26.9465 69.6445 25.3799L69.6487 25.3882ZM74.7153 24.7674V23.7424C74.4903 23.9632 73.2987 24.1007 72.7987 24.1674C71.9028 24.2882 71.1654 24.5841 71.1654 25.4091C71.1654 26.1757 71.7987 26.5716 72.6737 26.5716C73.9654 26.5716 74.7153 25.7132 74.7153 24.7674Z" fill="white"/>
<path d="M79.8683 27.6382H78.3184V19.6799H79.8059V20.9757H79.9059C80.2726 20.1299 81.0559 19.5757 82.2517 19.5757C83.8809 19.5757 84.9601 20.6048 84.9601 22.5757V27.6382H83.41V22.7632C83.41 21.6091 82.7725 20.9173 81.7225 20.9173C80.6725 20.9173 79.8683 21.6424 79.8683 22.9132V27.6382Z" fill="white"/>
<path d="M95.9365 19.6797H97.4906V27.6381H95.9656V26.2589H95.8823C95.5156 27.1089 94.699 27.7422 93.5031 27.7422C91.974 27.7422 90.8906 26.7172 90.8906 24.7422V19.6797H92.4406V24.5547C92.4406 25.638 93.1031 26.3338 94.0615 26.3338C94.9323 26.3338 95.9364 25.6922 95.9323 24.338V19.6797H95.9365Z" fill="white"/>
<path d="M99.5645 19.6799H101.077V20.9716H101.206C101.481 20.4799 102.014 19.5757 103.489 19.5757C105.41 19.5757 106.831 21.0924 106.831 23.6757C106.831 26.2591 105.431 27.7965 103.506 27.7965C102.056 27.7965 101.485 26.9091 101.206 26.4007H101.114V30.6257H99.5645V19.684V19.6799ZM103.16 26.4715C104.544 26.4715 105.269 25.2549 105.269 23.659C105.269 22.0632 104.564 20.8924 103.16 20.8924C101.756 20.8924 101.081 21.9965 101.081 23.659C101.081 25.3215 101.827 26.4715 103.16 26.4715Z" fill="white"/>
<path d="M108.19 25.3882C108.19 23.5799 109.736 23.1841 111.24 23.0091C112.669 22.8424 113.252 22.8549 113.252 22.2882V22.2507C113.252 21.3507 112.74 20.8257 111.74 20.8257C110.74 20.8257 110.119 21.3716 109.89 21.9341L108.431 21.6008C108.948 20.1508 110.277 19.5674 111.715 19.5674C112.977 19.5674 114.802 20.03 114.802 22.3466V27.6299H113.29V26.5424H113.227C112.931 27.1382 112.19 27.8049 110.873 27.8049C109.361 27.8049 108.186 26.9465 108.186 25.3799L108.19 25.3882ZM113.256 24.7674V23.7424C113.031 23.9632 111.84 24.1007 111.34 24.1674C110.444 24.2882 109.706 24.5841 109.706 25.4091C109.706 26.1757 110.34 26.5716 111.215 26.5716C112.506 26.5716 113.256 25.7132 113.256 24.7674Z" fill="white"/>
<path d="M116.499 30.4508L116.87 29.18C117.72 29.4133 118.274 29.3258 118.67 28.2675L118.862 27.7383L115.949 19.6758H117.608L119.624 25.8508H119.708L121.724 19.6758H123.387L120.108 28.6967C119.645 29.9508 118.837 30.6175 117.558 30.6175C117.091 30.6175 116.687 30.53 116.499 30.4467V30.4508Z" fill="white"/>
<path d="M124.223 25.3882C124.223 23.5799 125.769 23.1841 127.273 23.0091C128.702 22.8424 129.285 22.8549 129.285 22.2882V22.2507C129.285 21.3507 128.773 20.8257 127.773 20.8257C126.773 20.8257 126.152 21.3716 125.923 21.9341L124.465 21.6008C124.981 20.1508 126.31 19.5674 127.748 19.5674C129.01 19.5674 130.835 20.03 130.835 22.3466V27.6299H129.323V26.5424H129.26C128.965 27.1382 128.223 27.8049 126.906 27.8049C125.394 27.8049 124.219 26.9465 124.219 25.3799L124.223 25.3882ZM129.29 24.7674V23.7424C129.065 23.9632 127.873 24.1007 127.373 24.1674C126.477 24.2882 125.74 24.5841 125.74 25.4091C125.74 26.1757 126.373 26.5716 127.248 26.5716C128.54 26.5716 129.29 25.7132 129.29 24.7674Z" fill="white"/>
<path d="M136.564 17.5297C136.564 17.0214 137.006 16.6006 137.544 16.6006C138.081 16.6006 138.523 17.0214 138.523 17.5297C138.523 18.0381 138.077 18.4506 137.544 18.4506C137.01 18.4506 136.564 18.0339 136.564 17.5297ZM136.76 19.6797H138.31V27.6381H136.76V19.6797Z" fill="white"/>
<path d="M141.939 27.6382H140.389V19.6799H141.876V20.9757H141.976C142.343 20.1299 143.126 19.5757 144.322 19.5757C145.951 19.5757 147.03 20.6048 147.03 22.5757V27.6382H145.48V22.7632C145.48 21.6091 144.843 20.9173 143.793 20.9173C142.743 20.9173 141.939 21.6424 141.939 22.9132V27.6382Z" fill="white"/>
<path d="M148.902 17.5297C148.902 17.0214 149.344 16.6006 149.882 16.6006C150.419 16.6006 150.861 17.0214 150.861 17.5297C150.861 18.0381 150.415 18.4506 149.882 18.4506C149.348 18.4506 148.902 18.0339 148.902 17.5297ZM149.098 19.6797H150.648V27.6381H149.098V19.6797Z" fill="white"/>
</svg>
