<svg width="188" height="43" viewBox="0 0 188 43" fill="none" xmlns="http://www.w3.org/2000/svg">
<path d="M166.772 0.458008H20.939C9.43311 0.458008 0.105713 9.78541 0.105713 21.2913C0.105713 32.7973 9.43311 42.1247 20.939 42.1247H166.772C178.278 42.1247 187.606 32.7973 187.606 21.2913C187.606 9.78541 178.278 0.458008 166.772 0.458008Z" fill="#02B14F"/>
<path d="M31.2481 16.9041H35.1356C37.3939 16.9041 38.4815 18.1207 38.4815 19.6915C38.4815 21.0165 37.669 21.6832 36.694 21.929V22.0332C37.744 22.0915 38.8981 23.0165 38.8981 24.6582C38.8981 26.2998 37.7856 27.5124 35.319 27.5124H31.2523V16.8999L31.2481 16.9041ZM34.994 21.4956C36.0731 21.4956 36.9106 20.8416 36.9106 19.8166C36.9106 18.9374 36.3023 18.2665 35.0356 18.2665H32.8481V21.4956H34.994ZM35.1606 26.1415C36.6981 26.1415 37.3065 25.4749 37.3065 24.5832C37.3065 23.5749 36.5023 22.7456 35.219 22.7456H32.8523V26.1457H35.1648L35.1606 26.1415Z" fill="white"/>
<path d="M40.2895 25.2666C40.2895 23.4583 41.8354 23.0625 43.3395 22.8875C44.7687 22.7208 45.352 22.7333 45.352 22.1666V22.1291C45.352 21.2291 44.8395 20.7041 43.8395 20.7041C42.8395 20.7041 42.2187 21.2499 41.9896 21.8124L40.5312 21.4792C41.0479 20.0292 42.3771 19.4458 43.8146 19.4458C45.0771 19.4458 46.9021 19.9083 46.9021 22.2249V27.5083H45.3896V26.4208H45.3271C45.0312 27.0166 44.2895 27.6833 42.9729 27.6833C41.4604 27.6833 40.2854 26.8249 40.2854 25.2583L40.2895 25.2666ZM45.3562 24.6458V23.6208C45.1312 23.8416 43.9395 23.9792 43.4395 24.0458C42.5437 24.1667 41.8062 24.4625 41.8062 25.2875C41.8062 26.0541 42.4395 26.45 43.3145 26.45C44.6062 26.45 45.3562 25.5916 45.3562 24.6458Z" fill="white"/>
<path d="M48.9192 28.8622L50.2525 28.3122C50.5275 28.7664 51.0317 29.4163 52.3192 29.4163C53.4942 29.4163 54.3525 28.8789 54.3525 27.6289V26.0623H54.2525C53.9733 26.5706 53.4067 27.3956 51.9483 27.3956C50.0692 27.3956 48.6233 26.0414 48.6233 23.5039C48.6233 20.9664 50.04 19.4497 51.9608 19.4497C53.4441 19.4497 53.9941 20.3497 54.265 20.8456H54.3775V19.5539H55.8942V27.6872C55.8942 29.733 54.3317 30.6622 52.3025 30.6622C50.4025 30.6622 49.34 29.8331 48.9192 28.8581V28.8622ZM54.365 23.483C54.365 21.8705 53.64 20.7663 52.2858 20.7663C50.9316 20.7663 50.1817 21.9538 50.1817 23.483C50.1817 25.0122 50.9025 26.108 52.2858 26.108C53.6691 26.108 54.365 25.1247 54.365 23.483Z" fill="white"/>
<path d="M57.7698 17.4082C57.7698 16.8998 58.2114 16.479 58.7489 16.479C59.2864 16.479 59.7281 16.8998 59.7281 17.4082C59.7281 17.9165 59.2823 18.329 58.7489 18.329C58.2156 18.329 57.7698 17.9123 57.7698 17.4082ZM57.9656 19.5581H59.5156V27.5165H57.9656V19.5581Z" fill="white"/>
<path d="M61.5981 16.9038H63.1481V22.9246H63.2814L66.4522 19.5579H68.3064L65.0814 22.9746L68.5231 27.5205H66.6231L63.9189 23.9246L63.1481 24.6955V27.5205H61.5981V16.908V16.9038Z" fill="white"/>
<path d="M69.3404 25.2666C69.3404 23.4583 70.8862 23.0625 72.3903 22.8875C73.8195 22.7208 74.4029 22.7333 74.4029 22.1666V22.1291C74.4029 21.2291 73.8904 20.7041 72.8904 20.7041C71.8904 20.7041 71.2695 21.2499 71.0403 21.8124L69.582 21.4792C70.0987 20.0292 71.4278 19.4458 72.8653 19.4458C74.1278 19.4458 75.9529 19.9083 75.9529 22.2249V27.5083H74.4403V26.4208H74.3778C74.082 27.0166 73.3403 27.6833 72.0237 27.6833C70.5112 27.6833 69.3362 26.8249 69.3362 25.2583L69.3404 25.2666ZM74.407 24.6458V23.6208C74.182 23.8416 72.9903 23.9792 72.4903 24.0458C71.5945 24.1667 70.857 24.4625 70.857 25.2875C70.857 26.0541 71.4904 26.45 72.3654 26.45C73.657 26.45 74.407 25.5916 74.407 24.6458Z" fill="white"/>
<path d="M79.56 27.5162H78.01V19.5578H79.4975V20.8537H79.5975C79.9642 20.0078 80.7475 19.4536 81.9434 19.4536C83.5725 19.4536 84.6517 20.4828 84.6517 22.4536V27.5162H83.1017V22.6411C83.1017 21.4869 82.4642 20.7953 81.4142 20.7953C80.3642 20.7953 79.56 21.5203 79.56 22.7911V27.5162Z" fill="white"/>
<path d="M95.6281 19.5581H97.1823V27.5165H95.6572V26.1373H95.5739C95.2073 26.9873 94.3906 27.6206 93.1948 27.6206C91.6656 27.6206 90.5823 26.5956 90.5823 24.6206V19.5581H92.1323V24.4331C92.1323 25.5164 92.7948 26.2123 93.7531 26.2123C94.6239 26.2123 95.6281 25.5706 95.6239 24.2164V19.5581H95.6281Z" fill="white"/>
<path d="M99.2561 19.5578H100.769V20.8495H100.898C101.173 20.3578 101.706 19.4536 103.181 19.4536C105.102 19.4536 106.523 20.9703 106.523 23.5536C106.523 26.137 105.123 27.6744 103.198 27.6744C101.748 27.6744 101.177 26.787 100.898 26.2787H100.806V30.5036H99.2561V19.562V19.5578ZM102.852 26.3495C104.235 26.3495 104.96 25.1328 104.96 23.537C104.96 21.9411 104.256 20.7702 102.852 20.7702C101.448 20.7702 100.773 21.8745 100.773 23.537C100.773 25.1995 101.519 26.3495 102.852 26.3495Z" fill="white"/>
<path d="M107.882 25.2666C107.882 23.4583 109.427 23.0625 110.931 22.8875C112.361 22.7208 112.944 22.7333 112.944 22.1666V22.1291C112.944 21.2291 112.432 20.7041 111.432 20.7041C110.432 20.7041 109.811 21.2499 109.582 21.8124L108.123 21.4792C108.64 20.0292 109.969 19.4458 111.407 19.4458C112.669 19.4458 114.494 19.9083 114.494 22.2249V27.5083H112.982V26.4208H112.919C112.623 27.0166 111.881 27.6833 110.565 27.6833C109.052 27.6833 107.877 26.8249 107.877 25.2583L107.882 25.2666ZM112.948 24.6458V23.6208C112.723 23.8416 111.531 23.9792 111.031 24.0458C110.136 24.1667 109.398 24.4625 109.398 25.2875C109.398 26.0541 110.032 26.45 110.907 26.45C112.198 26.45 112.948 25.5916 112.948 24.6458Z" fill="white"/>
<path d="M116.191 30.3292L116.562 29.0584C117.412 29.2917 117.966 29.2042 118.362 28.1459L118.553 27.6167L115.641 19.5542H117.299L119.316 25.7292H119.399L121.416 19.5542H123.078L119.799 28.5751C119.337 29.8293 118.528 30.4959 117.249 30.4959C116.783 30.4959 116.378 30.4084 116.191 30.3251V30.3292Z" fill="white"/>
<path d="M123.915 25.2666C123.915 23.4583 125.46 23.0625 126.965 22.8875C128.394 22.7208 128.977 22.7333 128.977 22.1666V22.1291C128.977 21.2291 128.465 20.7041 127.465 20.7041C126.465 20.7041 125.844 21.2499 125.615 21.8124L124.156 21.4792C124.673 20.0292 126.002 19.4458 127.44 19.4458C128.702 19.4458 130.527 19.9083 130.527 22.2249V27.5083H129.015V26.4208H128.952C128.656 27.0166 127.915 27.6833 126.598 27.6833C125.085 27.6833 123.91 26.8249 123.91 25.2583L123.915 25.2666ZM128.981 24.6458V23.6208C128.756 23.8416 127.565 23.9792 127.065 24.0458C126.169 24.1667 125.431 24.4625 125.431 25.2875C125.431 26.0541 126.065 26.45 126.94 26.45C128.231 26.45 128.981 25.5916 128.981 24.6458Z" fill="white"/>
<path d="M136.256 17.4082C136.256 16.8998 136.698 16.479 137.235 16.479C137.773 16.479 138.215 16.8998 138.215 17.4082C138.215 17.9165 137.769 18.329 137.235 18.329C136.702 18.329 136.256 17.9123 136.256 17.4082ZM136.452 19.5581H138.002V27.5165H136.452V19.5581Z" fill="white"/>
<path d="M141.63 27.5162H140.08V19.5578H141.568V20.8537H141.668C142.035 20.0078 142.818 19.4536 144.014 19.4536C145.643 19.4536 146.722 20.4828 146.722 22.4536V27.5162H145.172V22.6411C145.172 21.4869 144.535 20.7953 143.485 20.7953C142.435 20.7953 141.63 21.5203 141.63 22.7911V27.5162Z" fill="white"/>
<path d="M148.594 17.4082C148.594 16.8998 149.036 16.479 149.573 16.479C150.111 16.479 150.552 16.8998 150.552 17.4082C150.552 17.9165 150.106 18.329 149.573 18.329C149.04 18.329 148.594 17.9123 148.594 17.4082ZM148.79 19.5581H150.34V27.5165H148.79V19.5581Z" fill="white"/>
</svg>
