<svg width="226" height="59" viewBox="0 0 226 59" fill="none" xmlns="http://www.w3.org/2000/svg">
<path d="M196.112 0.383789H29.9495C13.9309 0.383789 0.945312 13.3693 0.945312 29.3879C0.945312 45.4065 13.9309 58.3921 29.9495 58.3921H196.112C212.131 58.3921 225.116 45.4065 225.116 29.3879C225.116 13.3693 212.131 0.383789 196.112 0.383789Z" fill="#ABD64F"/>
<path d="M28.9531 15.1585H32.8406C35.0989 15.1585 36.1865 16.3751 36.1865 17.9459C36.1865 19.2709 35.374 19.9377 34.399 20.1835V20.2877C35.449 20.346 36.6031 21.271 36.6031 22.9127C36.6031 24.5543 35.4906 25.7668 33.024 25.7668H28.9573V15.1543L28.9531 15.1585ZM32.699 19.7501C33.7781 19.7501 34.6156 19.096 34.6156 18.071C34.6156 17.1918 34.0073 16.521 32.7406 16.521H30.5531V19.7501H32.699ZM32.8656 24.3959C34.4031 24.3959 35.0115 23.7293 35.0115 22.8376C35.0115 21.8293 34.2073 21.0001 32.924 21.0001H30.5573V24.4001H32.8698L32.8656 24.3959Z" fill="#005339"/>
<path d="M37.9944 23.521C37.9944 21.7127 39.5402 21.3169 41.0444 21.1419C42.4735 20.9752 43.0569 20.9876 43.0569 20.4209V20.3835C43.0569 19.4835 42.5444 18.9585 41.5444 18.9585C40.5444 18.9585 39.9236 19.5043 39.6944 20.0668L38.2361 19.7335C38.7527 18.2835 40.0819 17.7002 41.5194 17.7002C42.7819 17.7002 44.6069 18.1627 44.6069 20.4793V25.7626H43.0944V24.6752H43.0319C42.7361 25.271 41.9944 25.9377 40.6777 25.9377C39.1652 25.9377 37.9902 25.0793 37.9902 23.5127L37.9944 23.521ZM43.061 22.9002V21.8752C42.836 22.096 41.6444 22.2334 41.1444 22.3001C40.2485 22.4209 39.511 22.7169 39.511 23.5419C39.511 24.3085 40.1444 24.7043 41.0194 24.7043C42.311 24.7043 43.061 23.846 43.061 22.9002Z" fill="#005339"/>
<path d="M46.624 27.1214L47.9573 26.5714C48.2323 27.0256 48.7365 27.6756 50.024 27.6756C51.199 27.6756 52.0573 27.1381 52.0573 25.8881V24.3214H51.9573C51.6781 24.8298 51.1115 25.6547 49.6532 25.6547C47.774 25.6547 46.3281 24.3006 46.3281 21.7631C46.3281 19.2256 47.7448 17.709 49.6656 17.709C51.149 17.709 51.699 18.6089 51.9698 19.1048H52.0823V17.8132H53.599V25.9464C53.599 27.9922 52.0365 28.9214 50.0073 28.9214C48.1073 28.9214 47.0448 28.0922 46.624 27.1172V27.1214ZM52.0698 21.7423C52.0698 20.1298 51.3448 19.0256 49.9906 19.0256C48.6365 19.0256 47.8865 20.2131 47.8865 21.7423C47.8865 23.2715 48.6073 24.3673 49.9906 24.3673C51.374 24.3673 52.0698 23.384 52.0698 21.7423Z" fill="#005339"/>
<path d="M55.4746 15.6626C55.4746 15.1542 55.9163 14.7334 56.4538 14.7334C56.9913 14.7334 57.4329 15.1542 57.4329 15.6626C57.4329 16.1709 56.9871 16.5834 56.4538 16.5834C55.9204 16.5834 55.4746 16.1667 55.4746 15.6626ZM55.6704 17.8126H57.2204V25.7709H55.6704V17.8126Z" fill="#005339"/>
<path d="M59.2988 15.1582H60.8489V21.179H60.9822L64.153 17.8124H66.0072L62.7822 21.2291L66.2238 25.7749H64.3239L61.6197 22.1791L60.8489 22.9498V25.7749H59.2988V15.1624V15.1582Z" fill="#005339"/>
<path d="M67.0413 23.521C67.0413 21.7127 68.5871 21.3169 70.0913 21.1419C71.5204 20.9752 72.1038 20.9876 72.1038 20.4209V20.3835C72.1038 19.4835 71.5913 18.9585 70.5913 18.9585C69.5913 18.9585 68.9704 19.5043 68.7413 20.0668L67.2829 19.7335C67.7996 18.2835 69.1288 17.7002 70.5663 17.7002C71.8288 17.7002 73.6538 18.1627 73.6538 20.4793V25.7626H72.1413V24.6752H72.0788C71.7829 25.271 71.0413 25.9377 69.7246 25.9377C68.2121 25.9377 67.0371 25.0793 67.0371 23.5127L67.0413 23.521ZM72.108 22.9002V21.8752C71.883 22.096 70.6913 22.2334 70.1913 22.3001C69.2954 22.4209 68.558 22.7169 68.558 23.5419C68.558 24.3085 69.1913 24.7043 70.0663 24.7043C71.358 24.7043 72.108 23.846 72.108 22.9002Z" fill="#005339"/>
<path d="M77.2668 25.7714H75.7168V17.8132H77.2043V19.1089H77.3043C77.671 18.2631 78.4543 17.709 79.6502 17.709C81.2793 17.709 82.3585 18.7381 82.3585 20.709V25.7714H80.8085V20.8964C80.8085 19.7423 80.171 19.0506 79.121 19.0506C78.071 19.0506 77.2668 19.7756 77.2668 21.0464V25.7714Z" fill="#005339"/>
<path d="M87.9414 21.8079C87.9414 19.2288 89.358 17.708 91.2789 17.708C92.7622 17.708 93.2914 18.6079 93.5705 19.1038H93.6622V15.1621H95.2122V25.7746H93.6997V24.5371H93.5705C93.2914 25.0454 92.7206 25.933 91.2706 25.933C89.3372 25.933 87.9455 24.3871 87.9455 21.8121L87.9414 21.8079ZM93.6872 21.7912C93.6872 20.1287 92.9622 19.0246 91.608 19.0246C90.2539 19.0246 89.5039 20.2121 89.5039 21.7912C89.5039 23.3704 90.2247 24.6037 91.608 24.6037C92.9914 24.6037 93.6872 23.4621 93.6872 21.7912Z" fill="#005339"/>
<path d="M102.458 17.8125H104.012V25.7708H102.487V24.3916H102.404C102.037 25.2416 101.22 25.8749 100.025 25.8749C98.4955 25.8749 97.4121 24.85 97.4121 22.875V17.8125H98.9621V22.6875C98.9621 23.7708 99.6246 24.4667 100.583 24.4667C101.454 24.4667 102.458 23.825 102.454 22.4708V17.8125H102.458Z" fill="#005339"/>
<path d="M106.082 15.1582H107.632V21.179H107.766L110.936 17.8124H112.791L109.566 21.2291L113.007 25.7749H111.107L108.403 22.1791L107.632 22.9498V25.7749H106.082V15.1624V15.1582Z" fill="#005339"/>
<path d="M119.241 17.8125H120.795V25.7708H119.27V24.3916H119.187C118.82 25.2416 118.004 25.8749 116.808 25.8749C115.279 25.8749 114.195 24.85 114.195 22.875V17.8125H115.745V22.6875C115.745 23.7708 116.408 24.4667 117.366 24.4667C118.237 24.4667 119.241 23.825 119.237 22.4708V17.8125H119.241Z" fill="#005339"/>
<path d="M124.415 25.7714H122.865V17.8132H124.353V19.1089H124.453C124.819 18.2631 125.603 17.709 126.799 17.709C128.428 17.709 129.507 18.7381 129.507 20.709V25.7714H127.957V20.8964C127.957 19.7423 127.319 19.0506 126.269 19.0506C125.219 19.0506 124.415 19.7756 124.415 21.0464V25.7714Z" fill="#005339"/>
<path d="M131.528 27.1214L132.862 26.5714C133.137 27.0256 133.641 27.6756 134.928 27.6756C136.103 27.6756 136.962 27.1381 136.962 25.8881V24.3214H136.862C136.582 24.8298 136.016 25.6547 134.557 25.6547C132.678 25.6547 131.232 24.3006 131.232 21.7631C131.232 19.2256 132.649 17.709 134.57 17.709C136.053 17.709 136.603 18.6089 136.874 19.1048H136.987V17.8132H138.503V25.9464C138.503 27.9922 136.941 28.9214 134.912 28.9214C133.012 28.9214 131.949 28.0922 131.528 27.1172V27.1214ZM136.974 21.7423C136.974 20.1298 136.249 19.0256 134.895 19.0256C133.541 19.0256 132.791 20.2131 132.791 21.7423C132.791 23.2715 133.512 24.3673 134.895 24.3673C136.278 24.3673 136.974 23.384 136.974 21.7423Z" fill="#005339"/>
<path d="M140.203 23.521C140.203 21.7127 141.749 21.3169 143.253 21.1419C144.683 20.9752 145.266 20.9876 145.266 20.4209V20.3835C145.266 19.4835 144.753 18.9585 143.753 18.9585C142.753 18.9585 142.133 19.5043 141.903 20.0668L140.445 19.7335C140.962 18.2835 142.291 17.7002 143.728 17.7002C144.991 17.7002 146.816 18.1627 146.816 20.4793V25.7626H145.303V24.6752H145.241C144.945 25.271 144.203 25.9377 142.887 25.9377C141.374 25.9377 140.199 25.0793 140.199 23.5127L140.203 23.521ZM145.27 22.9002V21.8752C145.045 22.096 143.853 22.2334 143.353 22.3001C142.458 22.4209 141.72 22.7169 141.72 23.5419C141.72 24.3085 142.353 24.7043 143.228 24.7043C144.52 24.7043 145.27 23.846 145.27 22.9002Z" fill="#005339"/>
<path d="M150.429 25.7714H148.879V17.8132H150.366V19.1089H150.466C150.833 18.2631 151.616 17.709 152.812 17.709C154.441 17.709 155.521 18.7381 155.521 20.709V25.7714H153.971V20.8964C153.971 19.7423 153.333 19.0506 152.283 19.0506C151.233 19.0506 150.429 19.7756 150.429 21.0464V25.7714Z" fill="#005339"/>
<path d="M160.773 25.7707L164.594 15.1582H166.444L170.265 25.7707H168.565L167.594 22.9624H163.448L162.473 25.7707H160.773ZM167.128 21.6165L165.561 17.0873H165.478L163.911 21.6165H167.123H167.128Z" fill="#005339"/>
<path d="M173.208 25.7714H171.658V17.8132H173.146V19.1089H173.246C173.612 18.2631 174.396 17.709 175.592 17.709C177.221 17.709 178.3 18.7381 178.3 20.709V25.7714H176.75V20.8964C176.75 19.7423 176.112 19.0506 175.062 19.0506C174.012 19.0506 173.208 19.7756 173.208 21.0464V25.7714Z" fill="#005339"/>
<path d="M180.02 21.8079C180.02 19.2288 181.436 17.708 183.357 17.708C184.84 17.708 185.37 18.6079 185.649 19.1038H185.74V15.1621H187.29V25.7746H185.778V24.5371H185.649C185.37 25.0454 184.799 25.933 183.349 25.933C181.415 25.933 180.024 24.3871 180.024 21.8121L180.02 21.8079ZM185.765 21.7912C185.765 20.1287 185.04 19.0246 183.686 19.0246C182.332 19.0246 181.582 20.2121 181.582 21.7912C181.582 23.3704 182.303 24.6037 183.686 24.6037C185.07 24.6037 185.765 23.4621 185.765 21.7912Z" fill="#005339"/>
<path d="M189.119 23.521C189.119 21.7127 190.665 21.3169 192.169 21.1419C193.599 20.9752 194.182 20.9876 194.182 20.4209V20.3835C194.182 19.4835 193.669 18.9585 192.669 18.9585C191.669 18.9585 191.049 19.5043 190.819 20.0668L189.361 19.7335C189.878 18.2835 191.207 17.7002 192.644 17.7002C193.907 17.7002 195.732 18.1627 195.732 20.4793V25.7626H194.219V24.6752H194.157C193.861 25.271 193.119 25.9377 191.803 25.9377C190.29 25.9377 189.115 25.0793 189.115 23.5127L189.119 23.521ZM194.186 22.9002V21.8752C193.961 22.096 192.769 22.2334 192.269 22.3001C191.374 22.4209 190.636 22.7169 190.636 23.5419C190.636 24.3085 191.269 24.7043 192.144 24.7043C193.436 24.7043 194.186 23.846 194.186 22.9002Z" fill="#005339"/>
<path d="M47.6044 35.8252H49.1586V43.7835H47.6336V42.4043H47.5503C47.1836 43.2543 46.3669 43.8876 45.1711 43.8876C43.6419 43.8876 42.5586 42.8627 42.5586 40.8877V35.8252H44.1086V40.7002C44.1086 41.7835 44.7711 42.4793 45.7294 42.4793C46.6003 42.4793 47.6044 41.8377 47.6003 40.4835V35.8252H47.6044Z" fill="#005339"/>
<path d="M52.7825 43.7831H51.2324V35.8249H52.72V37.1206H52.8199C53.1866 36.2748 53.9699 35.7207 55.1658 35.7207C56.7949 35.7207 57.8741 36.7498 57.8741 38.7207V43.7831H56.3241V38.9082C56.3241 37.754 55.6866 37.0624 54.6366 37.0624C53.5866 37.0624 52.7825 37.7874 52.7825 39.0582V43.7831Z" fill="#005339"/>
<path d="M63.6564 37.067H62.0231V41.4462C62.0231 42.342 62.4731 42.5086 62.9772 42.5086C63.2272 42.5086 63.4189 42.4628 63.523 42.442L63.8022 43.7212C63.6189 43.7878 63.2897 43.8836 62.798 43.8878C61.5772 43.9128 60.4731 43.2129 60.4772 41.767V37.067H59.3105V35.8254H60.4772V33.917H62.0272V35.8254H63.6606V37.067H63.6564Z" fill="#005339"/>
<path d="M70.4072 35.8252H71.9613V43.7835H70.4364V42.4043H70.353C69.9863 43.2543 69.1697 43.8876 67.9738 43.8876C66.4447 43.8876 65.3613 42.8627 65.3613 40.8877V35.8252H66.9113V40.7002C66.9113 41.7835 67.5738 42.4793 68.5322 42.4793C69.403 42.4793 70.4072 41.8377 70.403 40.4835V35.8252H70.4072Z" fill="#005339"/>
<path d="M74.0312 33.1709H75.5812V39.1917H75.7145L78.8854 35.8251H80.7396L77.5146 39.2418L80.9562 43.7876H79.0562L76.3521 40.1918L75.5812 40.9625V43.7876H74.0312V33.1751V33.1709Z" fill="#005339"/>
<path d="M86.1367 33.1709H89.9201C92.3868 33.1709 93.5951 34.6542 93.5951 36.6084C93.5951 38.5626 92.3784 40.0542 89.9159 40.0542H87.7409V43.7834H86.1409V33.1709H86.1367ZM89.77 38.6959C91.3367 38.6959 91.9826 37.8084 91.9826 36.6084C91.9826 35.4084 91.3367 34.5459 89.7492 34.5459H87.7367V38.6959H89.77Z" fill="#005339"/>
<path d="M95.332 35.825H96.8279V37.0874H96.9112C97.2028 36.2332 97.9987 35.7041 98.932 35.7041C99.1278 35.7041 99.4362 35.7207 99.5904 35.7415V37.2249C99.4654 37.1874 99.1028 37.1332 98.782 37.1332C97.682 37.1332 96.882 37.8833 96.882 38.9249V43.7874H95.332V35.8291V35.825Z" fill="#005339"/>
<path d="M100.287 39.8415C100.287 37.3665 101.754 35.7207 103.995 35.7207C106.237 35.7207 107.704 37.3623 107.704 39.8415C107.704 42.3207 106.237 43.9457 103.995 43.9457C101.754 43.9457 100.287 42.304 100.287 39.8415ZM106.141 39.8373C106.141 38.3123 105.458 37.0207 104 37.0207C102.541 37.0207 101.85 38.3165 101.85 39.8373C101.85 41.3582 102.533 42.6457 104 42.6457C105.466 42.6457 106.141 41.3665 106.141 39.8373Z" fill="#005339"/>
<path d="M109.382 45.1292L110.715 44.5793C110.99 45.0335 111.494 45.6834 112.782 45.6834C113.957 45.6834 114.815 45.1459 114.815 43.8959V42.3292H114.715C114.436 42.8376 113.869 43.6626 112.411 43.6626C110.532 43.6626 109.086 42.3085 109.086 39.771C109.086 37.2335 110.503 35.7168 112.423 35.7168C113.907 35.7168 114.457 36.6167 114.728 37.1126H114.84V35.821H116.357V43.9543C116.357 46.0001 114.794 46.9293 112.765 46.9293C110.865 46.9293 109.803 46.1001 109.382 45.1251V45.1292ZM114.828 39.7501C114.828 38.1376 114.103 37.0334 112.748 37.0334C111.394 37.0334 110.644 38.2209 110.644 39.7501C110.644 41.2793 111.365 42.3751 112.748 42.3751C114.132 42.3751 114.828 41.3918 114.828 39.7501Z" fill="#005339"/>
<path d="M118.428 35.825H119.924V37.0874H120.007C120.299 36.2332 121.094 35.7041 122.028 35.7041C122.224 35.7041 122.532 35.7207 122.686 35.7415V37.2249C122.561 37.1874 122.199 37.1332 121.878 37.1332C120.778 37.1332 119.978 37.8833 119.978 38.9249V43.7874H118.428V35.8291V35.825Z" fill="#005339"/>
<path d="M123.586 41.5327C123.586 39.7244 125.132 39.3286 126.636 39.1536C128.065 38.9869 128.649 38.9994 128.649 38.4328V38.3952C128.649 37.4952 128.136 36.9703 127.136 36.9703C126.136 36.9703 125.515 37.5161 125.286 38.0786L123.828 37.7452C124.345 36.2952 125.674 35.7119 127.111 35.7119C128.374 35.7119 130.199 36.1744 130.199 38.491V43.7744H128.686V42.6869H128.624C128.328 43.2827 127.586 43.9494 126.27 43.9494C124.757 43.9494 123.582 43.0911 123.582 41.5244L123.586 41.5327ZM128.653 40.9119V39.8869C128.428 40.1078 127.236 40.2453 126.736 40.3119C125.84 40.4328 125.103 40.7286 125.103 41.5536C125.103 42.3203 125.736 42.716 126.611 42.716C127.903 42.716 128.653 41.8577 128.653 40.9119Z" fill="#005339"/>
<path d="M132.262 35.8249H133.749V37.1206H133.849C134.183 36.2456 134.962 35.7207 136.016 35.7207C137.07 35.7207 137.808 36.2498 138.158 37.1206H138.241C138.624 36.2706 139.487 35.7207 140.628 35.7207C142.07 35.7207 143.083 36.629 143.083 38.4456V43.7831H141.533V38.5915C141.533 37.5123 140.858 37.0582 140.041 37.0582C139.033 37.0582 138.445 37.754 138.445 38.7123V43.7831H136.899V38.4915C136.899 37.6248 136.303 37.0582 135.445 37.0582C134.587 37.0582 133.812 37.804 133.812 38.879V43.7873H132.262V35.829V35.8249Z" fill="#005339"/>
<path d="M149.133 33.1709H150.733V37.7834H156.024V33.1709H157.633V43.7834H156.024V39.1543H150.733V43.7834H149.133V33.1709Z" fill="#005339"/>
<path d="M159.633 33.6753C159.633 33.1669 160.074 32.7461 160.612 32.7461C161.149 32.7461 161.591 33.1669 161.591 33.6753C161.591 34.1836 161.145 34.5961 160.612 34.5961C160.079 34.5961 159.633 34.1794 159.633 33.6753ZM159.829 35.8253H161.379V43.7836H159.829V35.8253Z" fill="#005339"/>
<path d="M165.012 35.8253V44.3003C165.012 45.8961 164.137 46.767 162.487 46.767C162.378 46.767 162.278 46.767 162.17 46.7628V45.4294H162.42C163.157 45.4294 163.462 45.0252 163.462 44.2877V35.8211H165.012V35.8253ZM163.249 33.6753C163.249 33.1669 163.691 32.7461 164.228 32.7461C164.766 32.7461 165.207 33.1669 165.207 33.6753C165.207 34.1836 164.762 34.5961 164.228 34.5961C163.695 34.5961 163.249 34.1794 163.249 33.6753Z" fill="#005339"/>
<path d="M166.721 41.5327C166.721 39.7244 168.267 39.3286 169.771 39.1536C171.2 38.9869 171.783 38.9994 171.783 38.4328V38.3952C171.783 37.4952 171.271 36.9703 170.271 36.9703C169.271 36.9703 168.65 37.5161 168.421 38.0786L166.963 37.7452C167.479 36.2952 168.808 35.7119 170.246 35.7119C171.508 35.7119 173.333 36.1744 173.333 38.491V43.7744H171.821V42.6869H171.758C171.463 43.2827 170.721 43.9494 169.404 43.9494C167.892 43.9494 166.717 43.0911 166.717 41.5244L166.721 41.5327ZM171.788 40.9119V39.8869C171.563 40.1078 170.371 40.2453 169.871 40.3119C168.975 40.4328 168.238 40.7286 168.238 41.5536C168.238 42.3203 168.871 42.716 169.746 42.716C171.038 42.716 171.788 41.8577 171.788 40.9119Z" fill="#005339"/>
<path d="M180.433 35.8252H181.987V43.7835H180.462V42.4043H180.378C180.012 43.2543 179.195 43.8876 177.999 43.8876C176.47 43.8876 175.387 42.8627 175.387 40.8877V35.8252H176.937V40.7002C176.937 41.7835 177.599 42.4793 178.558 42.4793C179.428 42.4793 180.433 41.8377 180.428 40.4835V35.8252H180.433Z" fill="#005339"/>
</svg>
