<svg width="147" height="250" viewBox="0 0 147 250" fill="none" xmlns="http://www.w3.org/2000/svg">
<path d="M3.42601 174.101H3.32601C3.37184 174.109 3.40934 174.109 3.42601 174.101Z" fill="#20BB65"/>
<path d="M0.105077 174.284C0.105077 174.284 0.0925781 174.28 0.0800781 174.275L0.105077 174.284Z" fill="#20BB65"/>
<path d="M0.488307 173.45C0.33414 173.659 -0.120041 173.655 0.0299585 173.917C-0.0242082 174.026 0.0674555 174.163 0.104955 174.28C0.446622 174.375 0.0924656 174.426 0.375799 174.521H0.175807C0.27164 174.555 0.338284 174.588 0.22995 174.596L0.171636 174.588C0.31747 174.638 0.225798 174.663 0.296631 174.688L0.238292 174.68L0.25912 174.721L0.175807 174.705C0.329974 174.78 0.334116 174.838 0.254949 174.88L0.496623 174.901C0.217457 174.98 0.713307 175.071 0.38414 175.138L0.325801 175.13C0.950801 175.309 -0.12838 175.288 0.467453 175.467C0.392453 175.446 0.342452 175.467 0.284119 175.459C0.346619 175.526 0.37995 175.588 0.85495 175.626C0.846617 175.667 0.704956 175.65 0.521622 175.642C0.729956 175.659 0.813302 175.701 0.821635 175.734L0.742468 175.713L0.804952 175.813L1.19662 175.821C1.07995 175.863 0.717457 175.8 0.809123 175.855L1.13414 175.876C1.06747 175.938 0.571634 175.946 0.325801 176.001C0.167468 176.284 0.988306 176.613 0.409139 176.859H0.163295C-0.195038 176.859 0.692449 176.951 0.359116 176.955L0.521622 176.988C0.459122 176.996 0.388285 177.013 0.309118 176.996C0.296618 177.025 0.354971 177.026 0.459137 177.046L0.238292 177.076C0.0632919 177.188 0.492469 177.288 0.404969 177.405C-0.049198 177.55 0.371639 177.821 0.617473 177.963C1.15497 178.155 -0.253372 178.471 0.371628 178.667C0.321628 178.68 0.438295 178.688 0.475795 178.688L0.438284 178.896C0.438284 178.896 0.421637 179.151 0.771637 179.271C1.12164 179.396 1.8258 179.351 3.26747 178.888H3.34663C3.5258 178.776 3.5633 178.713 3.16747 178.676C3.64664 178.63 3.21329 178.592 3.36329 178.559H3.4008C3.0258 178.525 3.69663 178.421 3.36746 178.384C3.40496 178.384 3.53829 178.376 3.54663 178.388C3.48413 178.351 3.3758 178.301 3.65496 178.284C3.5758 178.192 3.70078 178.055 3.25078 178.005H3.32995C3.02578 177.98 3.28413 177.963 3.12996 177.925C3.16746 177.925 3.18412 177.921 3.20079 177.917C2.90079 177.888 3.15079 177.805 3.02162 177.776H3.20913L3.1633 177.692L3.12579 177.721C2.61329 177.721 3.44664 177.655 3.1133 177.605C3.1758 177.551 2.0508 177.505 2.3008 177.446C2.0633 177.421 2.68829 177.467 2.50496 177.43C2.77163 177.43 2.67164 177.446 2.88414 177.438C2.75914 177.401 3.15496 177.371 2.9758 177.326H3.18413C2.80496 177.259 3.45912 177.209 3.09662 177.163C2.92579 177.096 3.71329 177.13 3.30912 177.055L3.58828 177.034C3.63412 177.005 3.24662 177.009 3.37995 176.98C3.55495 176.984 3.52164 176.942 3.6883 176.963C3.96747 176.901 3.30081 176.809 3.76747 176.73C3.42581 176.696 3.62997 176.659 3.3758 176.634C3.5258 176.634 3.40496 176.542 3.72579 176.605C3.75079 176.609 3.74664 176.617 3.6883 176.617L3.89247 176.63C4.27997 176.592 3.68412 176.525 3.74662 176.475C3.67995 176.488 3.69663 176.509 3.55497 176.488L3.58414 176.442L3.75496 176.459L3.85913 176.392H3.64662C3.75912 176.363 4.11747 176.367 3.82164 176.313C3.65497 176.284 3.53413 176.33 3.47163 176.288C3.61746 176.246 3.84246 176.188 3.90912 176.134C3.67162 176.126 3.67997 176.109 3.63414 176.088L3.84247 176.101C3.55914 176.017 4.3008 176.109 4.0758 176.03L4.22162 176.046L3.7883 176.001C3.38413 175.913 4.22164 176.001 3.66331 175.896C3.69664 175.926 3.20497 175.875 3.29664 175.85L3.49663 175.876C3.45496 175.855 3.37162 175.842 3.41329 175.834C3.52162 175.851 3.70495 175.863 3.67162 175.834L3.92164 175.871L3.55914 175.796C3.77581 175.776 3.5133 175.696 3.79247 175.705C3.79247 175.705 3.9383 175.638 3.62996 175.592C3.82163 175.626 3.89663 175.588 4.12163 175.621C3.90496 175.584 3.73413 175.505 3.96746 175.501L3.99246 175.509C4.2383 175.442 3.68412 175.321 3.97995 175.271C3.73828 175.251 3.87579 175.221 3.56745 175.201C3.27579 175.084 4.20496 175.117 3.2633 174.98C3.21746 174.934 3.48829 174.959 3.54246 174.946L3.59245 174.963C3.52162 174.88 3.51746 174.859 3.54663 174.809C3.45913 174.771 3.02163 174.713 3.12996 174.676C3.30079 174.713 3.27162 174.688 3.27578 174.671C3.30078 174.688 3.36328 174.696 3.48412 174.688C3.42995 174.68 3.39663 174.667 3.37163 174.659C3.38413 174.659 3.39662 174.659 3.41329 174.663C3.35496 174.626 3.30078 174.621 3.27578 174.634C3.25078 174.634 3.2133 174.626 3.16747 174.626C3.39664 174.626 3.16745 174.534 3.46329 174.571C3.40495 174.471 3.10496 174.363 3.00079 174.271C3.15496 174.284 3.2883 174.321 3.34663 174.351L3.29664 174.288C3.51747 174.321 3.41745 174.338 3.46329 174.359C3.82995 174.346 3.12579 174.176 3.46329 174.146L3.29247 174.105H3.32164C3.22997 174.092 3.10496 174.055 3.07579 174.038C3.27162 174.055 3.51745 174.105 3.51329 174.067C3.70495 174.067 3.43412 173.971 3.33412 173.913C3.29662 173.93 3.19246 173.905 3.12579 173.888C3.12579 173.867 3.31746 173.888 3.23413 173.859L3.49246 173.896C3.24662 173.867 3.23829 173.805 3.12996 173.784C3.32163 173.805 3.29245 173.838 3.43412 173.867C3.42162 173.788 3.42996 173.83 3.41746 173.751C3.22996 173.68 3.17163 173.717 2.94663 173.663C2.90079 173.617 2.72579 173.555 2.88829 173.538L2.65495 173.513C2.48829 173.417 2.52162 173.38 2.76329 173.371C1.87162 172.955 1.24245 172.805 0.829951 172.771C0.417451 172.738 0.22995 172.817 0.22995 172.817C-0.315883 172.946 0.334124 173.175 0.471624 173.459L0.488307 173.45Z" fill="#20BB65"/>
<path d="M7.58479 187.559L7.54313 187.651C7.5723 187.617 7.58895 187.584 7.58479 187.559Z" fill="#20BB65"/>
<path d="M14.6427 191.375C14.6427 191.375 14.6511 191.367 14.6553 191.359C14.6469 191.363 14.6427 191.371 14.6427 191.375Z" fill="#20BB65"/>
<path d="M6.59309 190.946C6.59309 190.946 6.5806 190.955 6.57227 190.959L6.59726 190.946H6.59309Z" fill="#20BB65"/>
<path d="M5.27638 189.53C5.57638 189.938 5.38054 190.396 5.91387 190.58C6.08887 190.763 6.36387 190.855 6.59304 190.951C6.89304 190.734 6.85553 191.134 7.1347 190.971L7.06388 191.167C7.15971 191.113 7.24304 191.088 7.22221 191.201L7.18887 191.246C7.33054 191.159 7.3472 191.28 7.41803 191.234L7.38472 191.28L7.46806 191.305L7.40972 191.367C7.60138 191.301 7.7097 191.359 7.7597 191.48L7.88472 191.271C7.93055 191.63 8.2722 191.246 8.28053 191.626L8.24722 191.675C8.80139 191.263 8.38055 192.271 8.92222 191.88C8.85555 191.93 8.87222 191.996 8.84305 192.046C8.98472 192.046 9.1222 192.08 9.35137 191.667C9.42637 191.717 9.34305 191.834 9.26389 192.001C9.36389 191.817 9.47221 191.78 9.53888 191.801L9.47222 191.855L9.68055 191.888L9.83055 191.521C9.86805 191.671 9.62639 191.959 9.75972 191.921L9.90972 191.634C10.0055 191.755 9.85137 192.23 9.8722 192.509C10.1055 192.709 10.4597 192.692 10.7805 192.709C11.1014 192.734 11.3931 192.792 11.5264 193.159L11.4514 193.392C11.3222 193.726 11.7972 192.967 11.6889 193.28L11.8097 193.155C11.8014 193.221 11.8097 193.301 11.7472 193.359C11.7972 193.396 11.818 193.342 11.9014 193.259L11.8722 193.488C12.0222 193.734 12.368 193.409 12.5597 193.58C12.668 194.117 13.3389 193.909 13.7097 193.788C14.293 193.421 14.3305 194.942 14.9555 194.492C14.9555 194.546 15.0264 194.446 15.0347 194.409L15.4139 194.58C15.4139 194.58 15.8847 194.751 16.2722 194.513C16.6639 194.276 16.9347 193.617 16.6555 192.001L16.6847 191.93C16.5347 191.688 16.4222 191.617 16.1722 191.951C16.2889 191.484 16.0222 191.851 16.018 191.688L16.0347 191.651C15.8014 191.967 15.8764 191.28 15.6597 191.559C15.6764 191.526 15.7181 191.401 15.7472 191.401C15.6431 191.434 15.493 191.496 15.5722 191.23C15.3472 191.23 15.1097 191.013 14.8347 191.392L14.868 191.321C14.6972 191.58 14.7597 191.33 14.6264 191.446C14.6347 191.409 14.6347 191.392 14.6389 191.376C14.4597 191.63 14.3889 191.334 14.2805 191.43L14.3389 191.255L14.1639 191.238L14.2097 191.296C14.0139 191.767 14.2014 190.951 13.968 191.221C13.8847 191.121 13.3722 192.134 13.3472 191.851C13.2055 192.051 13.5347 191.509 13.3889 191.646C13.4805 191.396 13.4847 191.505 13.543 191.301C13.418 191.388 13.5139 190.996 13.3514 191.126L13.4222 190.93C13.1555 191.23 13.2889 190.584 13.0722 190.884C12.8764 190.992 13.2222 190.28 12.9347 190.601L12.993 190.321C12.9555 190.255 12.818 190.621 12.8097 190.467C12.8847 190.305 12.7889 190.305 12.8889 190.167C12.8639 189.855 12.4472 190.405 12.4555 189.896C12.2764 190.192 12.268 189.963 12.1305 190.184C12.1889 190.046 11.9597 190.076 12.1972 189.83C12.218 189.809 12.2306 189.821 12.2056 189.876L12.3055 189.696C12.368 189.3 12.0305 189.8 11.9555 189.696C11.9555 189.771 12.0056 189.776 11.9181 189.888L11.8347 189.817L11.9305 189.671L11.8347 189.517L11.7597 189.717C11.7389 189.584 11.8764 189.251 11.668 189.48C11.5597 189.613 11.6056 189.767 11.5014 189.792C11.4764 189.617 11.4389 189.355 11.3555 189.238C11.2555 189.455 11.2305 189.434 11.1764 189.459L11.2681 189.271C11.0139 189.463 11.4347 188.846 11.2139 188.988L11.2931 188.867L11.0555 189.234C10.7555 189.538 11.2055 188.826 10.818 189.251C10.8805 189.246 10.6222 189.663 10.6055 189.551L10.718 189.384C10.6639 189.405 10.6139 189.471 10.6139 189.421C10.6847 189.338 10.7639 189.171 10.7014 189.175L10.8555 188.976L10.5889 189.246C10.6264 189.021 10.3847 189.196 10.4972 188.934C10.4972 188.934 10.4264 188.73 10.2347 188.976C10.3597 188.826 10.3222 188.717 10.4597 188.538C10.3139 188.705 10.1097 188.788 10.1889 188.563L10.2097 188.546C10.1764 188.251 9.76388 188.659 9.78055 188.321C9.65555 188.53 9.65554 188.367 9.50554 188.638C9.18887 188.792 9.58889 187.942 9.00139 188.696C8.90555 188.696 9.04721 188.459 9.04304 188.396L9.08887 188.367C8.9222 188.342 8.88054 188.326 8.80554 188.242C8.70554 188.284 8.43888 188.638 8.41804 188.492C8.54721 188.371 8.4972 188.371 8.46387 188.351C8.50137 188.342 8.54304 188.296 8.57638 188.171C8.53888 188.213 8.5097 188.23 8.4847 188.246C8.49303 188.234 8.49722 188.226 8.50972 188.209C8.42222 188.221 8.39722 188.271 8.40555 188.309C8.38889 188.33 8.36805 188.359 8.34722 188.405C8.43055 188.188 8.18888 188.309 8.36804 188.063C8.18054 188.005 7.88053 188.163 7.68053 188.155C7.76387 188.021 7.88055 187.938 7.95555 187.921L7.83055 187.896C7.97222 187.726 7.96387 187.838 8.01803 187.821C8.14303 187.463 7.57638 187.926 7.67222 187.571L7.53471 187.684L7.5472 187.655C7.4847 187.726 7.37636 187.801 7.33886 187.805C7.45136 187.642 7.63472 187.467 7.56805 187.426C7.64722 187.246 7.37638 187.384 7.24721 187.409C7.25554 187.463 7.17637 187.534 7.11387 187.571C7.08054 187.551 7.19721 187.392 7.11387 187.434L7.28887 187.238C7.13053 187.43 7.0347 187.363 6.95137 187.434C7.06803 187.276 7.1097 187.355 7.21387 187.251C7.0847 187.163 7.15139 187.205 7.02222 187.117C6.82639 187.205 6.85971 187.305 6.67221 187.446C6.58471 187.434 6.40139 187.513 6.45139 187.338L6.30554 187.521C6.07221 187.551 6.03472 187.463 6.13472 187.234C5.08055 187.501 4.53472 187.863 4.28889 188.205C4.04305 188.542 4.0847 188.842 4.0847 188.842C4.05137 189.567 4.73054 189.271 5.26387 189.53H5.27638Z" fill="#20BB65"/>
<path d="M27.418 194.001L27.4388 194.101C27.443 194.055 27.4388 194.018 27.418 194.001Z" fill="#20BB65"/>
<path d="M35.8555 194.563C35.8555 194.563 35.8596 194.55 35.8638 194.542C35.8596 194.55 35.8555 194.555 35.8555 194.563Z" fill="#20BB65"/>
<path d="M28.4031 197.38C28.4031 197.38 28.3948 197.392 28.3906 197.405L28.4031 197.38Z" fill="#20BB65"/>
<path d="M26.6855 196.942C27.1272 197.109 27.2064 197.571 27.698 197.438C27.923 197.496 28.173 197.417 28.398 197.384C28.5355 197.042 28.6897 197.405 28.8397 197.121L28.8688 197.326C28.9188 197.23 28.9772 197.167 29.0105 197.276L29.0022 197.334C29.0814 197.188 29.1438 197.284 29.1813 197.213L29.173 197.271L29.2522 197.251L29.2313 197.334C29.3563 197.184 29.473 197.184 29.5647 197.263L29.5772 197.021C29.7689 197.309 29.8897 196.817 30.0605 197.151L30.0522 197.209C30.348 196.592 30.4063 197.672 30.7063 197.088C30.6688 197.163 30.7105 197.213 30.7063 197.271C30.8272 197.213 30.9563 197.184 30.9938 196.709C31.0772 196.721 31.0522 196.863 31.0522 197.046C31.0647 196.838 31.148 196.759 31.2147 196.751L31.1772 196.83L31.373 196.772L31.3647 196.376C31.4563 196.496 31.3563 196.855 31.4605 196.767L31.4813 196.442C31.6147 196.517 31.6647 197.013 31.7813 197.263C32.3355 197.438 32.9855 196.646 33.4772 197.246L33.4855 197.492C33.4772 197.851 33.6605 196.971 33.6605 197.305L33.7313 197.146C33.7438 197.213 33.7772 197.28 33.7439 197.359C33.798 197.376 33.8022 197.317 33.848 197.213L33.898 197.438C34.1105 197.621 34.323 197.205 34.548 197.301C34.8064 197.767 35.3564 197.376 35.6689 197.146C36.1147 196.63 36.5563 198.071 37.0188 197.476C37.0313 197.526 37.073 197.413 37.073 197.371L37.4689 197.434C37.4689 197.434 37.9522 197.484 38.2605 197.155C38.573 196.83 38.7022 196.126 38.0188 194.626L38.0313 194.551C37.823 194.355 37.6897 194.309 37.5272 194.696C37.5188 194.217 37.3522 194.642 37.3063 194.484V194.446C37.1688 194.813 37.0522 194.13 36.9147 194.455C36.923 194.417 36.9272 194.284 36.9563 194.28C36.8605 194.338 36.7314 194.438 36.7355 194.159C36.5147 194.226 36.2105 194.084 36.0522 194.521L36.0647 194.446C35.973 194.742 35.9605 194.488 35.8605 194.634C35.8605 194.596 35.8522 194.58 35.8522 194.563C35.7522 194.855 35.5938 194.596 35.5188 194.721V194.534L35.3438 194.571L35.4063 194.613C35.3605 195.121 35.2897 194.288 35.148 194.613C35.0314 194.542 34.8563 195.659 34.7438 195.405C34.673 195.642 34.8147 195.021 34.7188 195.201C34.7272 194.934 34.7689 195.034 34.7564 194.821C34.6647 194.942 34.6272 194.542 34.5147 194.717V194.509C34.3647 194.88 34.273 194.226 34.1647 194.58C34.0147 194.742 34.1022 193.959 33.9313 194.359L33.8897 194.076C33.8272 194.026 33.8272 194.417 33.7605 194.276C33.773 194.101 33.6813 194.13 33.7313 193.963C33.5897 193.68 33.3855 194.338 33.2022 193.859C33.1355 194.201 33.0438 193.988 32.9938 194.246C32.9938 194.096 32.7855 194.209 32.923 193.892C32.9355 193.867 32.9522 193.871 32.948 193.93L32.973 193.726C32.8772 193.334 32.7438 193.926 32.6272 193.859C32.6563 193.93 32.7063 193.913 32.6647 194.051L32.5563 194.017L32.5897 193.846L32.4313 193.734L32.4397 193.946C32.3647 193.834 32.3605 193.471 32.2522 193.767C32.2022 193.934 32.3105 194.059 32.2188 194.117C32.123 193.967 31.9772 193.738 31.8439 193.667C31.8439 193.909 31.8064 193.896 31.7647 193.942L31.773 193.734C31.6105 194.013 31.7522 193.276 31.5938 193.492L31.6147 193.351L31.548 193.78C31.3897 194.18 31.5105 193.346 31.323 193.896C31.3814 193.867 31.3188 194.355 31.2522 194.259L31.2855 194.059C31.2438 194.097 31.223 194.18 31.2022 194.138C31.2313 194.034 31.2355 193.846 31.1772 193.88L31.2355 193.634L31.1022 193.992C31.0355 193.771 30.8813 194.03 30.8688 193.747C30.8688 193.747 30.7022 193.596 30.6355 193.901C30.6855 193.713 30.5938 193.63 30.6355 193.409C30.573 193.621 30.423 193.788 30.3855 193.555L30.398 193.53C30.2147 193.28 30.0272 193.826 29.8688 193.521C29.8563 193.763 29.773 193.621 29.7688 193.934C29.5563 194.221 29.4813 193.284 29.3313 194.221C29.2397 194.263 29.248 193.988 29.2105 193.938L29.2355 193.888C29.0689 193.951 29.023 193.955 28.9022 193.921C28.8355 194.009 28.7855 194.446 28.6855 194.33C28.7355 194.159 28.6897 194.188 28.648 194.184C28.6772 194.159 28.6897 194.096 28.648 193.971C28.6355 194.026 28.623 194.059 28.6063 194.084C28.6063 194.071 28.6063 194.059 28.6063 194.042C28.5355 194.096 28.5397 194.155 28.5688 194.18C28.5647 194.205 28.5647 194.242 28.5688 194.292C28.523 194.059 28.373 194.292 28.3938 193.988C28.1855 194.038 28.0147 194.334 27.8355 194.434C27.8355 194.276 27.8855 194.146 27.9397 194.088L27.8147 194.134C27.8397 193.913 27.8939 194.013 27.9355 193.971C27.8314 193.601 27.6105 194.301 27.4772 193.955L27.423 194.126L27.4147 194.096C27.4064 194.188 27.3563 194.313 27.3272 194.338C27.3272 194.142 27.3772 193.892 27.2938 193.896C27.248 193.705 27.1022 193.972 27.0063 194.067C27.048 194.105 27.023 194.209 26.9938 194.276C26.9522 194.276 26.9522 194.08 26.9105 194.163L26.9355 193.901C26.923 194.146 26.798 194.155 26.773 194.259C26.773 194.063 26.8563 194.101 26.8813 193.955C26.7147 193.959 26.798 193.955 26.6314 193.963C26.523 194.151 26.6189 194.213 26.5522 194.434C26.4689 194.476 26.373 194.651 26.3022 194.484V194.717C26.1355 194.88 26.0522 194.842 25.9814 194.596C25.3272 195.471 25.1813 196.109 25.2105 196.526C25.2397 196.942 25.4397 197.142 25.4397 197.142C25.8147 197.709 26.1272 197.059 26.6647 196.938L26.6855 196.942Z" fill="#20BB65"/>
<path d="M49.1483 194.776L49.1816 194.872C49.1816 194.826 49.1733 194.788 49.1483 194.776Z" fill="#20BB65"/>
<path d="M57.6602 194.647C57.6602 194.647 57.6643 194.634 57.6685 194.626C57.6643 194.634 57.6602 194.643 57.6602 194.647Z" fill="#20BB65"/>
<path d="M50.4693 198.026C50.4693 198.026 50.4651 198.042 50.4609 198.051L50.4693 198.026Z" fill="#20BB65"/>
<path d="M48.7483 197.78C49.1983 197.892 49.3233 198.342 49.7899 198.155C50.0149 198.188 50.2524 198.084 50.4691 198.026C50.5691 197.672 50.7566 198.017 50.8775 197.721L50.9275 197.922C50.9691 197.822 51.0191 197.751 51.0608 197.859V197.917C51.1191 197.767 51.1941 197.855 51.2233 197.78V197.838L51.2983 197.813L51.2858 197.897C51.3941 197.734 51.5066 197.722 51.6108 197.797L51.6025 197.555C51.8191 197.821 51.8941 197.321 52.0858 197.638V197.697C52.3233 197.055 52.4733 198.126 52.7191 197.517C52.6899 197.592 52.7316 197.642 52.7316 197.701C52.8483 197.63 52.9691 197.592 52.9691 197.117C53.0524 197.121 53.0399 197.267 53.0524 197.446C53.0524 197.238 53.1233 197.151 53.19 197.138L53.1608 197.217L53.3483 197.146L53.3066 196.755C53.4066 196.867 53.3358 197.234 53.4316 197.138V196.813C53.565 196.876 53.6524 197.367 53.7858 197.605C54.3441 197.738 54.9358 196.901 55.4566 197.467L55.4816 197.713C55.4941 198.072 55.6191 197.184 55.6441 197.513L55.7024 197.351C55.7191 197.413 55.7566 197.484 55.7274 197.563C55.7816 197.576 55.7858 197.517 55.8233 197.409L55.8858 197.63C56.1066 197.801 56.29 197.367 56.5233 197.455C56.8066 197.905 57.3233 197.484 57.6233 197.238C58.04 196.701 58.5525 198.117 58.9775 197.501C58.9941 197.551 59.0275 197.438 59.0275 197.397L59.4233 197.442C59.4233 197.442 61.3483 197.559 59.8441 194.613L59.8524 194.534C59.6316 194.346 59.4983 194.305 59.3524 194.701C59.3233 194.221 59.1733 194.655 59.1191 194.496V194.459C58.9983 194.83 58.8483 194.155 58.7233 194.488C58.7274 194.451 58.7274 194.317 58.7566 194.309C58.6649 194.371 58.5399 194.48 58.5274 194.201C58.3066 194.276 57.9941 194.151 57.8608 194.596L57.8691 194.517C57.7941 194.817 57.765 194.563 57.6775 194.717C57.6733 194.68 57.6649 194.663 57.6649 194.646C57.5816 194.946 57.4066 194.696 57.3399 194.821L57.3316 194.634L57.1566 194.68L57.2233 194.717C57.2066 195.23 57.0858 194.401 56.9649 194.73C56.8441 194.667 56.7358 195.792 56.6108 195.546C56.5524 195.784 56.6566 195.159 56.5733 195.342C56.5691 195.076 56.6108 195.176 56.5858 194.963C56.5024 195.088 56.4399 194.692 56.3358 194.876L56.3274 194.667C56.1941 195.047 56.0608 194.396 55.9733 194.759C55.8316 194.93 55.8691 194.146 55.7233 194.551L55.6608 194.272C55.5983 194.226 55.6191 194.617 55.5441 194.48C55.5441 194.305 55.4524 194.338 55.4941 194.172C55.3316 193.897 55.1733 194.567 54.9566 194.101C54.9149 194.446 54.8066 194.242 54.7733 194.501C54.7649 194.351 54.5608 194.48 54.6775 194.151C54.6858 194.126 54.7066 194.13 54.7066 194.188L54.7191 193.984C54.5941 193.601 54.5024 194.196 54.3816 194.138C54.4191 194.205 54.4649 194.188 54.4358 194.326L54.3233 194.301L54.3441 194.13L54.1774 194.03L54.2024 194.242C54.1191 194.134 54.09 193.771 54.0025 194.076C53.9608 194.242 54.0816 194.359 53.9983 194.43C53.89 194.288 53.7233 194.071 53.5858 194.009C53.6025 194.246 53.5649 194.238 53.5274 194.288V194.08C53.3774 194.371 53.4649 193.626 53.3191 193.855L53.3316 193.709L53.2983 194.142C53.1691 194.555 53.2233 193.713 53.0816 194.276C53.1399 194.238 53.1108 194.734 53.04 194.642L53.0566 194.442C53.0191 194.484 53.0066 194.567 52.9774 194.526C52.9983 194.417 52.9858 194.234 52.9316 194.267L52.9691 194.017L52.8608 194.388C52.7733 194.176 52.6441 194.447 52.6066 194.163C52.6066 194.163 52.4233 194.026 52.3858 194.338C52.4191 194.146 52.3191 194.072 52.3483 193.847C52.3024 194.063 52.1649 194.242 52.1066 194.013L52.1149 193.988C51.9066 193.755 51.765 194.317 51.5816 194.03C51.59 194.271 51.4941 194.142 51.5191 194.446C51.3316 194.755 51.1691 193.826 51.1066 194.776C51.0191 194.83 51.0025 194.555 50.9566 194.505L50.9775 194.455C50.815 194.534 50.7691 194.542 50.6483 194.521C50.5899 194.613 50.5816 195.059 50.4733 194.951C50.5066 194.776 50.4649 194.809 50.4233 194.809C50.4483 194.78 50.4566 194.717 50.4024 194.601C50.3941 194.655 50.3858 194.688 50.3733 194.717C50.3733 194.705 50.3733 194.692 50.3733 194.676C50.3066 194.738 50.3191 194.792 50.3483 194.817C50.3483 194.842 50.3483 194.88 50.3608 194.926C50.2899 194.701 50.1649 194.942 50.1566 194.642C49.9524 194.713 49.8108 195.03 49.6441 195.146C49.6233 194.992 49.6649 194.855 49.7108 194.792L49.5899 194.851C49.5899 194.626 49.6566 194.722 49.6941 194.676C49.5483 194.317 49.4025 195.038 49.2316 194.709L49.1983 194.884L49.1899 194.855C49.1899 194.946 49.1525 195.076 49.1275 195.105C49.1025 194.909 49.1274 194.655 49.0441 194.667C48.9774 194.48 48.8566 194.763 48.7733 194.867C48.8191 194.901 48.8066 195.009 48.7858 195.076C48.7441 195.084 48.7191 194.888 48.69 194.971V194.709C48.7025 194.955 48.5774 194.976 48.5649 195.084C48.5399 194.888 48.6275 194.917 48.64 194.767C48.4733 194.792 48.5566 194.78 48.3899 194.805C48.3024 195.005 48.4066 195.055 48.3649 195.284C48.2858 195.338 48.2108 195.521 48.1191 195.363L48.1483 195.596C48.0024 195.78 47.9149 195.755 47.8149 195.517C46.7233 197.43 47.5899 198.113 47.5899 198.113C48.0233 198.626 48.2441 197.942 48.7566 197.755L48.7483 197.78Z" fill="#20BB65"/>
<path d="M71.0177 194.53L71.0511 194.626C71.0511 194.58 71.0427 194.542 71.0177 194.53Z" fill="#20BB65"/>
<path d="M79.5762 194.522C79.5762 194.522 79.5803 194.509 79.5845 194.501C79.5803 194.509 79.5762 194.513 79.5762 194.522Z" fill="#20BB65"/>
<path d="M72.3423 197.801C72.3423 197.801 72.3382 197.817 72.334 197.826L72.3423 197.801Z" fill="#20BB65"/>
<path d="M70.6262 197.534C71.0762 197.651 71.1971 198.105 71.6637 197.922C71.8846 197.959 72.1221 197.855 72.3387 197.801C72.4429 197.447 72.6221 197.797 72.7471 197.501L72.7929 197.701C72.8346 197.601 72.8846 197.53 72.9263 197.638V197.697C72.9846 197.547 73.0554 197.634 73.0888 197.559V197.617L73.1638 197.592L73.1512 197.676C73.2596 197.517 73.3721 197.505 73.4721 197.58L73.4637 197.338C73.6762 197.609 73.7554 197.109 73.9471 197.43V197.488C74.1888 196.851 74.3262 197.926 74.5804 197.317C74.5471 197.392 74.5929 197.442 74.5888 197.501C74.7054 197.43 74.8263 197.396 74.8304 196.921C74.9138 196.93 74.8971 197.072 74.9096 197.255C74.9096 197.047 74.9846 196.959 75.0471 196.947L75.0179 197.026L75.2054 196.955L75.1721 196.563C75.2721 196.676 75.1971 197.042 75.2929 196.947V196.622C75.4304 196.684 75.5096 197.18 75.6429 197.421C76.1971 197.563 76.7971 196.734 77.3096 197.309L77.3304 197.555C77.3388 197.913 77.4763 197.026 77.4929 197.355L77.5554 197.192C77.5721 197.255 77.6054 197.326 77.5762 197.405C77.6304 197.417 77.6346 197.359 77.6763 197.251L77.7346 197.472C77.9512 197.647 78.1429 197.217 78.3721 197.305C78.6429 197.759 79.1679 197.342 79.4721 197.101C79.9013 196.567 80.3721 197.992 80.8138 197.384C80.8263 197.434 80.8638 197.322 80.8638 197.28L81.2596 197.33C81.2596 197.33 83.1763 197.471 81.7763 194.509L81.7888 194.43C81.5763 194.238 81.4388 194.197 81.2804 194.588C81.2638 194.109 81.1013 194.538 81.0554 194.384V194.347C80.9221 194.717 80.7929 194.038 80.6596 194.367C80.6638 194.33 80.6721 194.196 80.7012 194.188C80.6054 194.246 80.4763 194.355 80.4763 194.076C80.2513 194.146 79.9429 194.017 79.7929 194.463L79.8054 194.384C79.7179 194.684 79.7012 194.43 79.6054 194.58C79.6012 194.542 79.5929 194.526 79.5971 194.509C79.5054 194.805 79.3388 194.555 79.2638 194.68V194.492L79.0846 194.534L79.1513 194.576C79.1221 195.084 79.0221 194.255 78.8888 194.584C78.7679 194.517 78.6346 195.642 78.5137 195.392C78.4512 195.63 78.5721 195.005 78.4804 195.188C78.4804 194.922 78.5221 195.021 78.5054 194.809C78.4179 194.934 78.3637 194.538 78.2554 194.717V194.509C78.1096 194.888 77.9929 194.234 77.8929 194.596C77.7471 194.767 77.8013 193.98 77.6471 194.384L77.5929 194.105C77.5304 194.059 77.5429 194.446 77.4721 194.313C77.4762 194.138 77.3846 194.171 77.4263 194.005C77.2679 193.73 77.0929 194.397 76.8846 193.93C76.8346 194.272 76.7304 194.067 76.6929 194.326C76.6887 194.176 76.4763 194.301 76.6013 193.976C76.6138 193.951 76.6304 193.955 76.6263 194.013L76.6429 193.809C76.5221 193.426 76.4221 194.022 76.3012 193.959C76.3346 194.026 76.3846 194.009 76.3512 194.151L76.2388 194.122L76.2638 193.951L76.0971 193.851L76.1179 194.063C76.0387 193.955 76.0096 193.592 75.9179 193.892C75.8763 194.059 75.9929 194.18 75.9054 194.247C75.7971 194.101 75.6346 193.884 75.4971 193.817C75.5096 194.055 75.4721 194.046 75.4346 194.096V193.888C75.2804 194.176 75.3804 193.43 75.2304 193.659L75.2429 193.513L75.2013 193.947C75.0679 194.359 75.1304 193.517 74.9846 194.076C75.0429 194.042 75.0096 194.534 74.9388 194.442L74.9554 194.242C74.9138 194.284 74.9013 194.367 74.8763 194.326C74.9013 194.217 74.8888 194.034 74.8304 194.067L74.8721 193.817L74.7596 194.184C74.6763 193.967 74.5387 194.238 74.5054 193.955C74.5054 193.955 74.3221 193.817 74.2804 194.126C74.3179 193.934 74.2179 193.859 74.2471 193.634C74.2013 193.851 74.0596 194.03 74.0054 193.796L74.0179 193.771C73.8096 193.534 73.6638 194.096 73.4804 193.805C73.4888 194.046 73.3929 193.913 73.4138 194.221C73.2221 194.526 73.0638 193.597 72.9971 194.547C72.9096 194.597 72.8929 194.322 72.8471 194.276L72.8679 194.226C72.7054 194.305 72.6554 194.313 72.5346 194.288C72.4721 194.38 72.4638 194.821 72.3554 194.717C72.3888 194.542 72.3471 194.576 72.3054 194.576C72.3304 194.547 72.3388 194.484 72.2846 194.367C72.2763 194.422 72.2638 194.455 72.2554 194.484C72.2554 194.472 72.2554 194.459 72.2554 194.442C72.1888 194.505 72.2013 194.559 72.2304 194.584C72.2304 194.609 72.2304 194.647 72.2429 194.692C72.1721 194.463 72.0471 194.709 72.0388 194.405C71.8346 194.476 71.6929 194.784 71.5221 194.901C71.5013 194.747 71.5429 194.609 71.5887 194.547L71.4679 194.605C71.4679 194.38 71.5346 194.476 71.5721 194.434C71.4263 194.072 71.2804 194.792 71.1096 194.463L71.0763 194.638L71.0679 194.609C71.0679 194.701 71.0304 194.83 71.0054 194.859C70.9804 194.663 71.0054 194.409 70.9221 194.421C70.8554 194.234 70.7346 194.513 70.6512 194.621C70.6971 194.655 70.6846 194.763 70.6638 194.83C70.6221 194.838 70.5971 194.642 70.5638 194.726V194.463C70.5763 194.709 70.4512 194.73 70.4387 194.838C70.4137 194.642 70.5013 194.671 70.5096 194.526C70.3429 194.551 70.4262 194.538 70.2596 194.563C70.1721 194.759 70.2763 194.813 70.2388 195.042C70.1596 195.092 70.0846 195.276 69.9929 195.117L70.0221 195.351C69.8762 195.53 69.7887 195.505 69.6887 195.267C68.6096 197.163 69.4804 197.859 69.4804 197.859C69.9137 198.376 70.1304 197.696 70.6388 197.517L70.6262 197.534Z" fill="#20BB65"/>
<path d="M92.9902 195.029L93.0152 195.129C93.0152 195.083 93.0152 195.046 92.9902 195.029Z" fill="#20BB65"/>
<path d="M101.56 195.859C101.56 195.859 101.569 195.846 101.573 195.838C101.565 195.846 101.565 195.85 101.56 195.859Z" fill="#20BB65"/>
<path d="M94.0477 198.384C94.0477 198.384 94.0393 198.396 94.0352 198.409L94.0477 198.384Z" fill="#20BB65"/>
<path d="M92.373 197.996C92.8105 198.142 92.8939 198.605 93.3689 198.455C93.5856 198.509 93.8272 198.421 94.0481 198.384C94.1772 198.042 94.3314 198.4 94.4731 198.117L94.5022 198.321C94.5522 198.225 94.6064 198.159 94.6397 198.271L94.6314 198.33C94.7064 198.184 94.7689 198.28 94.8064 198.209L94.798 198.267L94.8772 198.246L94.8564 198.33C94.9772 198.18 95.0897 198.175 95.1814 198.259L95.1939 198.017C95.3814 198.305 95.5022 197.813 95.6647 198.15L95.6564 198.209C95.9564 197.596 95.9939 198.675 96.298 198.096C96.2605 198.167 96.2981 198.221 96.2897 198.28C96.4106 198.221 96.5356 198.196 96.5814 197.725C96.6647 197.738 96.6356 197.88 96.6272 198.063C96.6481 197.855 96.7272 197.775 96.7939 197.771L96.7564 197.85L96.9481 197.8V197.405C97.0397 197.525 96.9272 197.884 97.0314 197.8L97.0605 197.475C97.1897 197.555 97.2231 198.05 97.3272 198.305C97.8564 198.5 98.5355 197.738 98.9814 198.367V198.613C98.9439 198.967 99.1772 198.105 99.1564 198.434L99.2356 198.28C99.2439 198.346 99.2731 198.417 99.2356 198.492C99.2897 198.513 99.298 198.455 99.348 198.35L99.3814 198.58C99.5772 198.775 99.8105 198.371 100.027 198.488C100.244 198.971 100.802 198.625 101.131 198.425C101.623 197.95 101.902 199.43 102.411 198.888C102.419 198.942 102.469 198.834 102.473 198.792L102.852 198.9C102.852 198.9 103.315 199.005 103.656 198.721C103.998 198.434 104.236 197.759 103.74 196.18L103.761 196.105C103.573 195.884 103.44 195.821 103.231 196.184C103.281 195.705 103.061 196.109 103.031 195.946L103.044 195.909C102.856 196.255 102.815 195.563 102.64 195.871C102.652 195.834 102.673 195.705 102.702 195.7C102.598 195.746 102.456 195.834 102.49 195.559C102.256 195.6 101.961 195.425 101.756 195.85L101.777 195.775C101.656 196.063 101.665 195.805 101.552 195.946C101.552 195.909 101.552 195.888 101.552 195.875C101.423 196.159 101.286 195.888 101.198 196.005L101.219 195.821L101.036 195.842L101.098 195.888C101.011 196.392 101.006 195.555 100.836 195.863C100.723 195.784 100.456 196.884 100.369 196.621C100.281 196.85 100.469 196.242 100.356 196.413C100.386 196.15 100.419 196.255 100.423 196.038C100.319 196.15 100.315 195.75 100.186 195.917L100.206 195.713C100.019 196.071 99.973 195.409 99.8397 195.759C99.673 195.913 99.8147 195.138 99.6189 195.521L99.5939 195.234C99.5356 195.18 99.5064 195.571 99.4522 195.425C99.4772 195.25 99.3772 195.275 99.4397 195.113C99.3106 194.821 99.0647 195.463 98.9064 194.975C98.823 195.313 98.7355 195.096 98.673 195.35C98.6855 195.2 98.4606 195.305 98.6147 194.992C98.6272 194.967 98.6439 194.975 98.6397 195.03L98.6772 194.83C98.598 194.434 98.4314 195.017 98.3189 194.942C98.3481 195.013 98.3981 195 98.3481 195.138L98.2397 195.1L98.2814 194.934L98.123 194.817V195.03C98.0522 194.913 98.0605 194.55 97.9397 194.842C97.8814 195.005 97.9855 195.134 97.8939 195.192C97.798 195.038 97.6564 194.805 97.523 194.725C97.5105 194.963 97.4772 194.95 97.4314 194.996L97.448 194.788C97.273 195.059 97.4397 194.33 97.2689 194.542L97.298 194.4L97.2147 194.83C97.0439 195.225 97.1855 194.392 96.9814 194.938C97.0439 194.909 96.9647 195.396 96.9022 195.3L96.9397 195.105C96.8981 195.142 96.873 195.225 96.8522 195.18C96.8855 195.075 96.8939 194.892 96.8314 194.921L96.8939 194.675L96.748 195.034C96.6814 194.813 96.523 195.067 96.5147 194.784C96.5147 194.784 96.3439 194.63 96.273 194.934C96.3272 194.746 96.2314 194.663 96.2814 194.442C96.2147 194.655 96.0564 194.817 96.023 194.584L96.0356 194.559C95.8481 194.305 95.6522 194.85 95.4897 194.546C95.4772 194.788 95.3897 194.646 95.3897 194.955C95.173 195.242 95.0897 194.3 94.9439 195.242C94.8522 195.288 94.8605 195.013 94.8189 194.959L94.8439 194.909C94.673 194.971 94.6272 194.98 94.5064 194.946C94.4397 195.034 94.3939 195.475 94.2939 195.359C94.3439 195.188 94.2939 195.217 94.2564 195.213C94.2856 195.188 94.2981 195.125 94.2564 195C94.2439 195.055 94.2314 195.088 94.2189 195.113C94.2189 195.1 94.2189 195.088 94.2189 195.071C94.148 195.13 94.1522 195.184 94.1814 195.209C94.1814 195.234 94.1814 195.271 94.1814 195.321C94.1272 195.088 93.9856 195.321 93.9981 195.021C93.7897 195.075 93.6189 195.375 93.4397 195.48C93.4314 195.321 93.4814 195.188 93.5356 195.134L93.4105 195.18C93.4272 194.959 93.4897 195.055 93.5314 195.013C93.4147 194.642 93.2106 195.35 93.0647 195.009L93.0189 195.184L93.0106 195.155C93.0064 195.246 92.9564 195.371 92.9314 195.4C92.9231 195.205 92.9647 194.955 92.8814 194.959C92.8272 194.767 92.6856 195.038 92.5939 195.138C92.6397 195.175 92.6147 195.28 92.5939 195.346C92.5522 195.346 92.5397 195.155 92.5022 195.234L92.5147 194.971C92.5147 195.221 92.3897 195.23 92.3647 195.338C92.3522 195.142 92.4397 195.175 92.4606 195.03C92.2939 195.042 92.3772 195.038 92.2064 195.05C92.1022 195.242 92.2064 195.3 92.1481 195.525C92.0647 195.571 91.9772 195.75 91.898 195.584L91.9106 195.817C91.7522 195.988 91.6647 195.955 91.5814 195.713C90.3731 197.538 91.1897 198.288 91.1897 198.288C91.5814 198.83 91.8439 198.163 92.3647 198.017L92.373 197.996Z" fill="#20BB65"/>
<path d="M114.801 198.771V198.875C114.817 198.833 114.821 198.792 114.801 198.771Z" fill="#20BB65"/>
<path d="M122.867 202.23C122.867 202.23 122.875 202.221 122.884 202.213C122.875 202.213 122.871 202.221 122.867 202.23Z" fill="#20BB65"/>
<path d="M114.983 202.284C114.983 202.284 114.975 202.296 114.967 202.304L114.983 202.284Z" fill="#20BB65"/>
<path d="M113.496 201.509C113.88 201.75 113.842 202.221 114.33 202.184C114.521 202.284 114.767 202.263 114.984 202.279C115.196 201.979 115.246 202.363 115.455 202.129L115.43 202.334C115.501 202.254 115.571 202.204 115.571 202.321L115.551 202.375C115.659 202.254 115.692 202.363 115.746 202.3L115.726 202.354H115.805L115.763 202.429C115.917 202.317 116.026 202.342 116.088 202.446L116.167 202.217C116.263 202.546 116.513 202.104 116.571 202.471L116.546 202.525C117.001 202.017 116.73 203.063 117.18 202.592C117.121 202.65 117.146 202.713 117.121 202.767C117.251 202.746 117.376 202.759 117.559 202.321C117.634 202.359 117.563 202.484 117.501 202.659C117.58 202.467 117.68 202.413 117.742 202.425L117.684 202.488H117.88L118.001 202.117C118.046 202.259 117.834 202.567 117.959 202.517L118.084 202.217C118.184 202.329 118.059 202.813 118.084 203.084C118.513 203.421 119.388 202.913 119.588 203.65L119.501 203.879C119.351 204.204 119.859 203.463 119.73 203.771L119.855 203.65C119.842 203.713 119.842 203.792 119.78 203.85C119.821 203.888 119.846 203.834 119.93 203.754L119.88 203.979C119.988 204.229 120.342 203.929 120.501 204.109C120.521 204.638 121.155 204.5 121.526 204.438C122.155 204.179 121.826 205.642 122.488 205.334C122.471 205.384 122.563 205.304 122.584 205.271L122.876 205.517C122.876 205.517 122.967 205.584 123.109 205.638C123.251 205.692 123.446 205.734 123.659 205.675C124.076 205.554 124.609 205.059 124.809 203.409L124.859 203.35C124.776 203.063 124.676 202.95 124.33 203.196C124.567 202.779 124.201 203.054 124.238 202.896L124.263 202.867C123.951 203.104 124.184 202.45 123.896 202.663C123.921 202.634 123.992 202.521 124.021 202.534C123.905 202.534 123.738 202.559 123.876 202.313C123.638 202.254 123.421 201.971 123.071 202.288L123.117 202.225C122.892 202.442 123.001 202.209 122.842 202.296C122.855 202.263 122.859 202.242 122.867 202.229C122.642 202.442 122.613 202.138 122.484 202.213L122.571 202.05L122.392 202L122.434 202.067C122.167 202.504 122.467 201.721 122.192 201.946C122.113 201.829 121.471 202.763 121.48 202.484C121.313 202.667 121.709 202.167 121.542 202.284C121.663 202.046 121.659 202.154 121.738 201.959C121.601 202.025 121.738 201.65 121.555 201.759L121.646 201.571C121.342 201.842 121.53 201.204 121.28 201.484C121.071 201.567 121.467 200.888 121.146 201.179L121.217 200.9C121.176 200.829 121.021 201.188 121.017 201.034C121.101 200.875 120.996 200.867 121.109 200.734C121.076 200.413 120.63 200.938 120.634 200.421C120.442 200.709 120.43 200.479 120.288 200.696C120.346 200.559 120.096 200.579 120.346 200.338C120.367 200.317 120.384 200.329 120.355 200.384L120.455 200.204C120.501 199.804 120.155 200.3 120.067 200.196C120.071 200.271 120.126 200.275 120.038 200.392L119.942 200.317L120.034 200.171L119.917 200.009L119.851 200.213C119.817 200.079 119.938 199.734 119.73 199.971C119.621 200.109 119.688 200.263 119.58 200.288C119.534 200.113 119.467 199.842 119.359 199.725C119.276 199.95 119.242 199.925 119.188 199.954L119.267 199.763C119.013 199.967 119.396 199.321 119.163 199.471L119.234 199.342L119.026 199.725C118.738 200.05 119.126 199.3 118.767 199.759C118.838 199.75 118.617 200.192 118.584 200.079L118.68 199.9C118.626 199.925 118.58 199.996 118.571 199.946C118.634 199.854 118.696 199.684 118.626 199.692L118.759 199.475L118.513 199.771C118.513 199.538 118.284 199.734 118.355 199.459C118.355 199.459 118.23 199.259 118.076 199.529C118.184 199.367 118.113 199.259 118.226 199.059C118.101 199.242 117.901 199.354 117.93 199.117L117.951 199.096C117.834 198.796 117.492 199.267 117.417 198.925C117.338 199.154 117.292 198.996 117.205 199.292C116.913 199.509 117.084 198.579 116.688 199.45C116.588 199.467 116.667 199.204 116.638 199.142L116.676 199.1C116.492 199.117 116.442 199.104 116.334 199.046C116.242 199.113 116.088 199.525 116.017 199.388C116.109 199.234 116.055 199.25 116.017 199.238C116.051 199.221 116.08 199.163 116.067 199.034C116.042 199.084 116.021 199.109 116.001 199.134C116.005 199.121 116.005 199.109 116.013 199.092C115.926 199.129 115.921 199.184 115.942 199.217C115.934 199.242 115.921 199.275 115.917 199.325C115.926 199.088 115.726 199.275 115.813 198.988C115.592 198.988 115.351 199.234 115.151 199.288C115.18 199.134 115.263 199.017 115.33 198.975L115.196 198.992C115.267 198.779 115.305 198.892 115.355 198.863C115.33 198.475 114.955 199.109 114.896 198.742L114.809 198.9V198.871C114.78 198.959 114.705 199.067 114.671 199.088C114.709 198.896 114.813 198.663 114.726 198.646C114.717 198.446 114.513 198.679 114.401 198.75C114.434 198.796 114.388 198.896 114.351 198.954C114.309 198.946 114.342 198.754 114.288 198.825L114.363 198.575C114.305 198.817 114.176 198.796 114.13 198.896C114.163 198.704 114.242 198.754 114.296 198.621C114.126 198.592 114.213 198.609 114.042 198.579C113.896 198.742 113.984 198.821 113.876 199.029C113.784 199.054 113.659 199.204 113.617 199.029L113.576 199.259C113.38 199.388 113.305 199.338 113.276 199.084C112.48 199.838 112.251 200.446 112.213 200.863C112.176 201.279 112.326 201.504 112.326 201.504C112.576 202.117 112.976 201.525 113.505 201.504L113.496 201.509Z" fill="#20BB65"/>
<path d="M132.789 211.876L132.723 211.955C132.76 211.934 132.789 211.905 132.789 211.876Z" fill="#20BB65"/>
<path d="M135.77 220.284C135.77 220.284 135.782 220.284 135.791 220.288C135.782 220.284 135.774 220.284 135.77 220.284Z" fill="#20BB65"/>
<path d="M129.995 213.034C130.099 213.455 129.766 213.763 130.124 214.047C130.182 214.242 130.382 214.384 130.516 214.538C130.874 214.467 130.632 214.772 130.949 214.747L130.786 214.872C130.895 214.863 130.978 214.876 130.895 214.955L130.841 214.976C131.003 214.963 130.949 215.063 131.028 215.055L130.974 215.076L131.024 215.13L130.945 215.155C131.132 215.18 131.182 215.276 131.153 215.388L131.374 215.284C131.203 215.572 131.699 215.442 131.466 215.734L131.411 215.755C132.086 215.73 131.141 216.247 131.791 216.242C131.707 216.242 131.678 216.297 131.624 216.317C131.724 216.392 131.799 216.488 132.245 216.33C132.266 216.409 132.128 216.442 131.957 216.513C132.153 216.442 132.257 216.476 132.291 216.534H132.203L132.332 216.68L132.691 216.517C132.616 216.647 132.245 216.697 132.366 216.751L132.674 216.642C132.662 216.788 132.211 217.021 132.024 217.213C132.053 217.738 133.007 218.059 132.574 218.684L132.341 218.767C131.995 218.863 132.887 218.767 132.57 218.867L132.741 218.884C132.682 218.913 132.624 218.963 132.541 218.955C132.541 219.009 132.599 218.996 132.711 219.009L132.507 219.117C132.391 219.355 132.841 219.43 132.803 219.663C132.42 220.009 132.912 220.405 133.207 220.651C133.799 220.971 132.47 221.642 133.12 221.959C133.07 221.98 133.186 222.001 133.228 221.992V222.372C133.228 222.372 133.232 222.826 133.595 223.084C133.957 223.33 134.674 223.426 136.078 222.538H136.157C136.324 222.296 136.353 222.147 135.945 222.038C136.42 221.959 135.97 221.847 136.12 221.776H136.157C135.774 221.684 136.428 221.455 136.082 221.363C136.12 221.363 136.253 221.351 136.262 221.38C136.191 221.292 136.066 221.172 136.341 221.126C136.232 220.905 136.312 220.559 135.849 220.484H135.928C135.62 220.447 135.87 220.38 135.703 220.313C135.737 220.301 135.757 220.292 135.77 220.292C135.461 220.251 135.674 220.034 135.537 219.984L135.72 219.946L135.645 219.776L135.62 219.851C135.116 219.922 135.907 219.655 135.561 219.584C135.603 219.447 134.474 219.547 134.691 219.376C134.445 219.367 135.082 219.346 134.882 219.296C135.141 219.238 135.053 219.305 135.257 219.238C135.116 219.176 135.491 219.038 135.291 218.967L135.491 218.917C135.091 218.859 135.699 218.588 135.324 218.571C135.12 218.467 135.899 218.33 135.466 218.271L135.724 218.146C135.753 218.067 135.378 218.184 135.491 218.076C135.662 218.038 135.603 217.951 135.778 217.951C136.003 217.713 135.32 217.713 135.703 217.376C135.357 217.422 135.524 217.255 135.266 217.292C135.407 217.247 135.228 217.067 135.574 217.101C135.603 217.101 135.603 217.126 135.545 217.138L135.745 217.096C136.078 216.863 135.478 216.926 135.499 216.788C135.445 216.842 135.474 216.888 135.332 216.896V216.776L135.499 216.751L135.541 216.551L135.345 216.638C135.424 216.526 135.757 216.384 135.441 216.384C135.266 216.392 135.195 216.546 135.103 216.48C135.207 216.326 135.362 216.092 135.374 215.93C135.153 216.017 135.149 215.98 135.091 215.955L135.287 215.884C134.962 215.83 135.699 215.68 135.428 215.605L135.57 215.571L135.145 215.676C134.711 215.68 135.524 215.459 134.941 215.501C134.995 215.547 134.52 215.684 134.578 215.58L134.774 215.53C134.72 215.505 134.637 215.522 134.666 215.48C134.774 215.467 134.945 215.392 134.891 215.346L135.141 215.301L134.753 215.317C134.924 215.159 134.624 215.117 134.87 214.984C134.87 214.984 134.928 214.751 134.624 214.821C134.816 214.788 134.845 214.659 135.066 214.605C134.845 214.638 134.624 214.563 134.816 214.421H134.845C134.982 214.121 134.399 214.196 134.586 213.901C134.37 214.005 134.449 213.855 134.174 214.005C133.816 213.946 134.595 213.405 133.699 213.734C133.611 213.672 133.853 213.542 133.878 213.48H133.932C133.787 213.355 133.757 213.313 133.72 213.188C133.607 213.172 133.207 213.355 133.253 213.209C133.428 213.163 133.378 213.138 133.357 213.097C133.395 213.109 133.457 213.088 133.536 212.984C133.482 213.001 133.449 213.005 133.42 213.009C133.432 213.001 133.441 212.997 133.457 212.988C133.37 212.951 133.328 212.988 133.32 213.03C133.295 213.042 133.266 213.059 133.228 213.088C133.399 212.922 133.12 212.913 133.386 212.767C133.224 212.609 132.878 212.617 132.695 212.517C132.824 212.426 132.962 212.396 133.041 212.413L132.932 212.33C133.128 212.226 133.078 212.33 133.137 212.346C133.387 212.038 132.67 212.247 132.874 211.934L132.703 211.988L132.724 211.963C132.645 212.009 132.512 212.038 132.474 212.03C132.632 211.913 132.866 211.809 132.811 211.738C132.941 211.584 132.632 211.613 132.499 211.588C132.499 211.646 132.395 211.688 132.324 211.705C132.295 211.671 132.449 211.551 132.362 211.563L132.587 211.426C132.382 211.567 132.299 211.467 132.199 211.509C132.353 211.388 132.378 211.48 132.507 211.413C132.395 211.276 132.449 211.347 132.336 211.209C132.12 211.234 132.132 211.355 131.916 211.438C131.828 211.397 131.632 211.426 131.72 211.263L131.537 211.413C131.307 211.38 131.278 211.296 131.42 211.084C130.32 211.142 129.766 211.484 129.47 211.776C129.174 212.072 129.137 212.33 129.137 212.33C128.924 212.934 129.591 212.73 129.999 213.042L129.995 213.034Z" fill="#20BB65"/>
<path d="M135.631 233.009H135.531C135.577 233.017 135.615 233.017 135.631 233.009Z" fill="#20BB65"/>
<path d="M134.898 237.088C134.898 237.088 134.911 237.092 134.919 237.096C134.911 237.092 134.907 237.088 134.898 237.088Z" fill="#20BB65"/>
<path d="M132.306 233.109C132.306 233.109 132.294 233.105 132.281 233.101L132.306 233.109Z" fill="#20BB65"/>
<path d="M132.689 232.367C132.544 232.555 132.085 232.542 132.235 232.78C132.181 232.875 132.268 233 132.306 233.105C132.648 233.209 132.289 233.234 132.573 233.338L132.373 233.325C132.469 233.363 132.531 233.396 132.423 233.396L132.364 233.384C132.51 233.438 132.414 233.454 132.485 233.484L132.427 233.471L132.448 233.509L132.368 233.488C132.518 233.563 132.518 233.617 132.439 233.65L132.677 233.688C132.393 233.738 132.881 233.863 132.552 233.892L132.493 233.879C133.102 234.104 132.035 233.975 132.61 234.2C132.539 234.171 132.485 234.184 132.431 234.171C132.489 234.238 132.514 234.3 132.981 234.388C132.968 234.425 132.827 234.392 132.648 234.363C132.852 234.4 132.931 234.45 132.939 234.484L132.864 234.455L132.918 234.555L133.306 234.609C133.185 234.634 132.831 234.534 132.918 234.592L133.239 234.65C133.164 234.7 132.673 234.65 132.427 234.663C132.244 234.888 133.002 235.325 132.393 235.446L132.152 235.409C131.802 235.342 132.656 235.58 132.331 235.521L132.485 235.584C132.423 235.58 132.352 235.584 132.277 235.55C132.256 235.571 132.314 235.584 132.418 235.625L132.193 235.609C132.006 235.671 132.406 235.846 132.298 235.934C131.827 235.963 132.185 236.288 132.389 236.479C132.868 236.792 131.431 236.7 131.981 237.029C131.931 237.025 132.039 237.067 132.077 237.075L131.985 237.242C131.985 237.242 131.902 237.45 132.193 237.667C132.489 237.88 133.16 238.105 134.681 238.109L134.756 238.13C134.964 238.071 135.023 238.017 134.656 237.854C135.127 237.954 134.723 237.78 134.881 237.792L134.918 237.805C134.573 237.659 135.248 237.746 134.939 237.609C134.977 237.621 135.106 237.65 135.11 237.667C135.06 237.609 134.973 237.525 135.243 237.584C135.198 237.463 135.356 237.342 134.935 237.18L135.01 237.2C134.727 237.096 134.977 237.142 134.839 237.063C134.877 237.067 134.893 237.071 134.91 237.075C134.627 236.971 134.893 236.942 134.777 236.884L134.96 236.921L134.935 236.83L134.889 236.85C134.393 236.73 135.214 236.855 134.906 236.725C134.981 236.684 133.893 236.388 134.152 236.384C133.923 236.304 134.527 236.488 134.356 236.409C134.614 236.463 134.514 236.463 134.727 236.496C134.61 236.429 135.006 236.484 134.843 236.396L135.048 236.438C134.689 236.292 135.339 236.367 134.998 236.25C134.843 236.146 135.61 236.329 135.227 236.175L135.506 236.205C135.556 236.184 135.173 236.113 135.314 236.105C135.485 236.142 135.46 236.092 135.623 236.142C135.91 236.121 135.268 235.909 135.748 235.9C135.414 235.809 135.627 235.8 135.377 235.734C135.523 235.759 135.423 235.638 135.727 235.759C135.752 235.767 135.743 235.775 135.689 235.763L135.889 235.809C136.277 235.825 135.702 235.663 135.773 235.617C135.702 235.617 135.714 235.646 135.581 235.605L135.618 235.554L135.785 235.6L135.898 235.538L135.685 235.509C135.802 235.492 136.156 235.546 135.868 235.446C135.706 235.396 135.581 235.43 135.523 235.375C135.673 235.35 135.906 235.313 135.981 235.259C135.743 235.221 135.756 235.205 135.714 235.175L135.919 235.213C135.648 235.088 136.373 235.271 136.16 235.159L136.302 235.192L135.881 235.092C135.489 234.955 136.31 235.138 135.773 234.963C135.802 234.996 135.323 234.892 135.414 234.875L135.61 234.921C135.573 234.896 135.489 234.871 135.535 234.867C135.639 234.896 135.818 234.925 135.793 234.892L136.035 234.955L135.681 234.834C135.902 234.834 135.648 234.717 135.927 234.755C135.927 234.755 136.077 234.692 135.777 234.617C135.964 234.667 136.043 234.634 136.264 234.688C136.056 234.625 135.889 234.53 136.123 234.542L136.148 234.55C136.398 234.492 135.86 234.325 136.156 234.284C135.918 234.246 136.056 234.221 135.752 234.179C135.468 234.038 136.398 234.117 135.464 233.925C135.423 233.875 135.693 233.913 135.743 233.9L135.789 233.917C135.727 233.825 135.718 233.8 135.752 233.746C135.664 233.7 135.231 233.625 135.344 233.592C135.514 233.638 135.485 233.613 135.489 233.592C135.514 233.609 135.577 233.621 135.698 233.617C135.643 233.605 135.614 233.592 135.585 233.584C135.598 233.584 135.61 233.584 135.627 233.592C135.573 233.55 135.514 233.546 135.489 233.559C135.464 233.554 135.427 233.55 135.381 233.546C135.61 233.546 135.381 233.45 135.681 233.496C135.627 233.388 135.331 233.267 135.227 233.171C135.381 233.188 135.514 233.225 135.568 233.259L135.523 233.192C135.743 233.225 135.643 233.246 135.685 233.271C136.052 233.259 135.352 233.075 135.689 233.046L135.518 233.005H135.548C135.456 232.992 135.331 232.954 135.306 232.938C135.502 232.954 135.748 233.004 135.743 232.963C135.935 232.963 135.664 232.859 135.568 232.8C135.531 232.817 135.427 232.796 135.36 232.775C135.36 232.755 135.552 232.775 135.468 232.742L135.727 232.78C135.481 232.75 135.468 232.688 135.364 232.667C135.56 232.684 135.527 232.721 135.668 232.75C135.656 232.667 135.66 232.709 135.652 232.625C135.464 232.554 135.406 232.596 135.181 232.542C135.135 232.496 134.96 232.434 135.123 232.413L134.889 232.392C134.718 232.296 134.752 232.259 134.993 232.246C134.089 231.855 133.452 231.746 133.039 231.725C132.627 231.705 132.439 231.779 132.439 231.779C131.902 231.904 132.56 232.096 132.706 232.359L132.689 232.367Z" fill="#20BB65"/>
<path d="M123.695 236.197C123.804 236.272 123.916 236.097 123.883 236.126C123.85 236.055 123.729 236.189 123.695 236.197Z" fill="#00B14F"/>
<path d="M125.504 238.58C125.479 238.705 125.421 238.488 125.504 238.58Z" fill="#00B14F"/>
<path d="M126.416 239.88C126.47 239.851 126.516 239.734 126.57 239.672L126.437 239.622C126.437 239.697 126.483 239.813 126.412 239.88H126.416Z" fill="#00B14F"/>
<path d="M126.57 239.672L126.766 239.747C126.679 239.613 126.616 239.622 126.57 239.672Z" fill="#00B14F"/>
<path d="M126.832 240.422L126.652 240.434L126.94 240.438L126.832 240.422Z" fill="#00B14F"/>
<path d="M127.132 240.763C126.99 240.78 127.036 240.972 126.928 240.955C127.019 241.038 127.169 241.059 127.303 241.076C127.199 241.03 127.144 240.934 127.136 240.763H127.132Z" fill="#00B14F"/>
<path d="M127.507 241.117C127.453 241.097 127.378 241.088 127.303 241.076C127.357 241.101 127.424 241.117 127.507 241.117Z" fill="#00B14F"/>
<path d="M126.875 240.23L126.971 240.063C126.971 240.063 126.941 240.026 126.929 240.005C126.908 240.038 126.846 240.121 126.875 240.226V240.23Z" fill="#00B14F"/>
<path d="M126.974 240.059C127.016 240.13 127.049 240.172 127.062 240.192C127.049 240.176 127.024 240.138 126.979 240.059H126.974Z" fill="#00B14F"/>
<path d="M126.92 239.993L126.932 240.005C126.932 240.005 126.945 239.98 126.92 239.993Z" fill="#00B14F"/>
<path d="M126.816 239.701L127.041 239.784L126.954 239.609C126.921 239.643 126.887 239.709 126.816 239.701Z" fill="#00B14F"/>
<path d="M127.141 239.822L127.041 239.784L127.074 239.851L127.141 239.822Z" fill="#00B14F"/>
<path d="M127.436 240.755C127.549 240.771 127.607 240.838 127.682 240.909C127.64 240.801 127.586 240.701 127.52 240.617C127.465 240.638 127.357 240.663 127.436 240.755Z" fill="#00B14F"/>
<path d="M127.225 240.405L127.245 240.413C127.245 240.413 127.245 240.384 127.225 240.405Z" fill="#00B14F"/>
<path d="M128.3 241.701C128.3 241.701 128.312 241.68 128.316 241.667L128.291 241.684L128.304 241.701H128.3Z" fill="#00B14F"/>
<path d="M127.537 240.584C127.512 240.497 127.45 240.489 127.379 240.484C127.429 240.522 127.479 240.564 127.525 240.618C127.55 240.609 127.562 240.597 127.541 240.584H127.537Z" fill="#00B14F"/>
<path d="M127.745 241.284C127.745 241.226 127.745 241.172 127.732 241.113C127.716 241.18 127.699 241.301 127.745 241.284Z" fill="#00B14F"/>
<path d="M127.221 240.468H127.208C127.196 240.509 127.208 240.493 127.221 240.468Z" fill="#00B14F"/>
<path d="M127.221 240.467C127.267 240.484 127.321 240.484 127.375 240.484C127.333 240.455 127.287 240.43 127.242 240.413C127.242 240.43 127.229 240.451 127.221 240.463V240.467Z" fill="#00B14F"/>
<path d="M128.108 241.376L128.045 241.326C128.079 241.414 128.066 241.505 128.037 241.676C128.179 241.726 128.245 241.709 128.295 241.684L128.079 241.372H128.116L128.108 241.376Z" fill="#00B14F"/>
<path d="M128.253 241.784L128.078 241.868L128.399 241.843L128.253 241.784Z" fill="#00B14F"/>
<path d="M128.379 242.171L128.521 242.192L128.516 242.084L128.379 242.171Z" fill="#00B14F"/>
<path d="M136.033 247.567C136.258 247.534 136.6 247.492 136.45 247.384L136.283 247.305C136.208 247.446 136.121 247.526 136.037 247.567H136.033Z" fill="#00B14F"/>
<path d="M131.09 245.246C131.102 245.38 131.136 245.467 131.177 245.534C131.177 245.363 131.227 245.18 131.09 245.246Z" fill="#00B14F"/>
<path d="M144.505 236.926C144.513 236.863 144.484 236.838 144.43 236.847C144.417 236.909 144.434 236.947 144.505 236.926Z" fill="#00B14F"/>
<path d="M131.178 245.538C131.178 245.663 131.215 245.784 131.382 245.796C131.382 245.771 131.382 245.751 131.382 245.721C131.307 245.676 131.236 245.626 131.182 245.538H131.178Z" fill="#00B14F"/>
<path d="M125.74 234.667C125.778 234.655 125.836 234.655 125.894 234.655C125.865 234.642 125.819 234.642 125.74 234.667Z" fill="#00B14F"/>
<path d="M129.444 243.392C129.419 243.392 129.382 243.334 129.444 243.392Z" fill="#00B14F"/>
<path d="M129.432 243.238C129.432 243.276 129.44 243.317 129.457 243.355C129.457 243.334 129.448 243.297 129.432 243.238Z" fill="#00B14F"/>
<path d="M129.375 243.305C129.363 243.276 129.354 243.255 129.342 243.234C129.313 243.243 129.304 243.264 129.375 243.305Z" fill="#00B14F"/>
<path d="M129.525 243.476C129.491 243.438 129.471 243.401 129.454 243.355C129.454 243.376 129.454 243.388 129.441 243.388C129.458 243.405 129.483 243.43 129.521 243.476H129.525Z" fill="#00B14F"/>
<path d="M145.433 234.843L145.574 234.78C145.166 234.734 144.733 234.884 144.353 235.034C144.32 234.993 144.483 234.93 144.541 234.901C144.074 234.768 143.874 234.797 143.045 235.105L143.187 234.901C143.058 234.959 142.899 234.88 142.628 234.809C142.366 234.743 141.97 234.689 141.599 234.809C141.612 234.784 141.637 234.747 141.699 234.718C141.487 234.776 141.287 234.772 141.07 234.739C140.92 234.705 140.783 234.651 140.649 234.609C140.383 234.526 140.158 234.509 140.062 234.884L139.724 235.068C140.162 235.13 139.658 235.393 139.837 235.518C139.666 235.559 139.395 235.289 139.603 235.251L139.637 235.289C139.716 234.897 139.095 235.147 139.108 234.88C138.245 234.893 137.408 234.672 136.603 234.647L136.695 234.951L136.416 234.93C136.341 234.859 136.32 234.693 136.52 234.705C136.416 234.53 136.183 234.847 136.178 234.914C135.787 234.789 136.333 234.559 136.216 234.551L136.053 234.572L136.091 234.609C135.958 234.734 135.945 234.864 135.703 234.847C135.549 234.784 135.628 234.659 135.566 234.647C135.566 234.626 135.545 234.614 135.474 234.639L135.12 234.609L135.249 234.83C135.133 234.884 134.787 234.847 134.453 234.864C134.116 234.847 133.77 234.884 133.653 234.83L133.783 234.609L133.428 234.639C133.358 234.618 133.337 234.626 133.337 234.647C133.278 234.659 133.353 234.784 133.199 234.847C132.958 234.864 132.945 234.73 132.812 234.609L132.849 234.572L132.687 234.551C132.566 234.559 133.116 234.789 132.724 234.914C132.72 234.847 132.487 234.53 132.378 234.705C132.52 234.697 132.549 234.776 132.524 234.851C132.437 234.826 132.341 234.797 132.266 234.726L132.291 234.647C132.266 234.647 132.241 234.651 132.216 234.651C132.203 234.634 132.191 234.622 132.183 234.605C132.195 234.622 132.199 234.639 132.203 234.655C131.858 234.672 131.508 234.718 131.153 234.764C130.808 234.73 130.428 234.58 130.041 234.626C130.033 234.689 130.091 234.776 130.041 234.868C130.016 234.868 129.987 234.868 129.962 234.868L129.703 234.551C129.591 234.584 129.595 234.972 129.395 234.718C129.424 234.78 129.466 234.872 129.391 234.897C129.195 234.834 128.995 234.801 128.795 234.784C128.687 234.509 128.478 234.53 128.241 234.601C128.108 234.643 127.97 234.697 127.82 234.73C127.603 234.764 127.403 234.768 127.191 234.709C127.253 234.739 127.278 234.776 127.291 234.801C127.062 234.726 126.824 234.722 126.612 234.747C126.403 234.697 126.191 234.618 125.987 234.493C126.141 234.634 126.037 234.651 125.92 234.655C125.987 234.684 125.937 234.805 125.933 234.901C125.916 234.905 125.899 234.905 125.883 234.909L125.458 234.659C125.387 234.88 125.108 234.759 124.97 234.839C124.758 234.809 124.591 234.839 124.358 234.901C124.416 234.934 124.578 234.993 124.545 235.034C124.166 234.884 123.733 234.734 123.324 234.78L123.466 234.843L122.887 234.822L122.995 234.972C123.645 235.268 123.612 235.384 123.653 235.576C123.687 235.759 123.803 236.039 124.428 236.259C124.199 236.272 124.441 236.668 124.474 236.847C124.512 236.851 124.562 236.868 124.628 236.901C124.478 236.989 124.662 237.172 124.87 237.33C125.087 237.493 125.328 237.63 125.399 237.747C125.433 237.922 125.274 237.893 125.095 237.847C125.374 237.98 125.47 238.214 125.558 238.476C125.57 238.514 125.583 238.551 125.595 238.589C125.578 238.576 125.558 238.564 125.537 238.543C125.537 238.564 125.533 238.568 125.528 238.58C125.545 238.601 125.566 238.626 125.595 238.676C125.603 238.668 125.608 238.659 125.616 238.655C125.637 238.722 125.658 238.784 125.678 238.839C125.695 238.88 125.712 238.918 125.724 238.947C125.728 238.955 125.737 238.955 125.745 238.959C125.745 239.026 125.783 239.109 125.724 239.101C125.866 239.193 125.899 239.13 125.928 238.997C125.966 238.972 126.008 238.934 126.045 238.901L126.112 238.93C126.133 238.889 126.178 238.843 126.083 238.872C126.103 238.855 126.124 238.843 126.149 238.834C126.174 238.88 126.174 238.922 126.162 238.955L126.108 238.93C126.095 238.955 126.103 238.972 126.153 238.972C126.083 239.13 125.758 239.189 126.116 239.309C126.108 239.255 126.07 239.176 126.12 239.176C126.233 239.247 126.737 239.097 126.916 239.151C126.841 239.197 126.808 239.284 126.637 239.255C126.708 239.264 126.795 239.297 126.862 239.293C126.937 239.397 127.108 239.43 127.241 239.472C127.233 239.526 127.224 239.572 127.212 239.601C127.241 239.564 127.262 239.522 127.287 239.484C127.403 239.522 127.466 239.572 127.337 239.701L127.166 239.805C127.674 240.009 127.233 240.014 127.72 240.243L127.741 240.218C127.845 240.405 128.112 240.339 127.924 240.622L127.845 240.593C127.912 240.693 127.953 240.743 127.995 240.793C127.97 240.793 127.945 240.793 127.92 240.78C128.183 241.043 127.774 240.759 127.862 241.03C127.795 240.993 127.745 240.947 127.703 240.905C127.728 240.972 127.745 241.039 127.758 241.105V241.093C127.766 241.064 127.774 241.051 127.774 241.076C127.774 241.076 127.778 241.076 127.783 241.076C127.803 241.064 127.824 241.055 127.845 241.047C127.883 241.155 127.82 241.089 127.783 241.076C127.774 241.08 127.766 241.084 127.758 241.089L128.062 241.318C128.033 241.243 127.97 241.168 127.845 241.043C127.97 241.001 128.091 241.03 128.178 240.989C128.187 240.997 128.191 241.005 128.203 241.014C128.199 241.055 128.245 241.189 128.32 241.176C128.22 241.264 128.295 241.401 128.399 241.53C128.374 241.576 128.349 241.618 128.333 241.659C128.37 241.634 128.412 241.609 128.483 241.618C128.574 241.709 128.666 241.784 128.699 241.818C128.595 241.63 128.749 241.634 128.87 241.614C128.778 241.847 128.816 241.93 129.045 241.964C128.962 242.043 128.874 242.126 128.808 242.209C128.787 242.184 128.774 242.159 128.762 242.13C128.666 242.305 128.741 242.239 128.737 242.314C128.662 242.443 128.645 242.576 128.749 242.718C128.753 242.647 128.724 242.564 128.799 242.547C128.874 242.53 128.866 242.639 128.862 242.676C128.92 242.664 128.92 242.589 128.97 242.534C128.983 242.551 128.995 242.568 129.008 242.584C128.991 242.751 129.078 242.818 129.183 242.901C129.208 242.976 129.228 243.055 129.187 243.214C129.249 243.155 129.266 243.051 129.353 243.23C129.378 243.222 129.416 243.218 129.437 243.218C129.437 243.226 129.437 243.226 129.437 243.23V243.214C129.437 243.214 129.458 243.214 129.437 243.209C129.437 243.151 129.449 243.093 129.474 243.051C129.499 243.047 129.528 243.047 129.553 243.051C129.453 243.234 130.103 243.159 129.683 243.351C129.803 243.414 129.912 243.501 130.02 243.597C129.983 243.722 129.97 243.834 129.791 243.734L129.937 243.934C129.945 244.114 130.037 244.297 130.174 244.347C130.216 244.464 130.52 244.451 130.341 244.464L130.674 244.697L130.641 244.73C130.862 245.047 131.374 245.159 131.383 245.718C131.499 245.789 131.628 245.859 131.72 246.064L131.62 246.197C131.766 246.293 131.803 246.689 131.978 246.643C131.866 246.855 131.958 247.009 132.128 247.189C132.395 247.493 132.695 247.768 132.837 248.009L132.966 247.83C133.17 248.109 133.408 248.314 133.683 248.526L133.703 248.393C133.749 248.48 133.795 248.576 133.845 248.676C134.016 249.022 134.233 249.414 134.428 249.43C134.428 249.43 134.428 249.43 134.428 249.434C134.433 249.434 134.437 249.434 134.441 249.434C134.445 249.434 134.449 249.434 134.453 249.434C134.453 249.434 134.453 249.434 134.453 249.43C134.649 249.409 134.866 249.018 135.037 248.676C135.224 248.305 135.362 247.984 135.603 247.922C135.662 247.739 135.737 247.689 135.824 247.651C135.816 247.664 135.812 247.676 135.808 247.689C135.82 247.68 135.833 247.664 135.845 247.643C135.903 247.622 135.966 247.601 136.033 247.568C135.966 247.58 135.908 247.593 135.866 247.614C135.933 247.522 136.028 247.368 136.099 247.205L136.278 247.301C136.278 247.301 136.291 247.28 136.299 247.268C136.462 247.184 136.316 247.097 136.153 247.055C136.183 246.968 136.195 246.889 136.195 246.814C136.524 246.922 136.291 246.522 136.637 246.643C136.549 246.48 136.87 246.151 136.633 245.884C136.67 245.909 136.708 245.901 136.674 245.947C136.778 245.88 136.887 245.814 136.874 245.672L137.103 245.793L136.999 245.376C137.22 245.351 137.328 245.359 137.383 245.601C137.383 245.122 137.487 245.293 137.453 244.859L137.57 244.976C137.637 244.884 137.578 244.605 137.728 244.634C138.133 244.634 138.553 243.684 139.191 243.359C138.733 243.151 139.549 243.259 139.274 243.005C139.387 243.047 139.495 243.018 139.508 243.164C139.628 242.834 139.966 242.889 139.862 242.509C139.974 242.551 139.949 242.672 140.024 242.689C140.024 242.651 140.012 242.543 140.087 242.559C140.162 242.576 140.133 242.659 140.137 242.73C140.337 242.455 140.083 242.205 139.841 241.976C140.07 241.943 140.108 241.859 140.016 241.626C140.137 241.647 140.291 241.643 140.187 241.83C140.274 241.747 140.766 241.364 140.57 241.189C140.645 241.201 140.691 241.072 140.687 241.026C140.866 240.83 140.899 240.826 141.045 240.605L140.966 240.634C140.783 240.351 141.049 240.418 141.149 240.23L141.17 240.255C141.653 240.026 141.216 240.022 141.724 239.818L141.553 239.714C141.249 239.409 142.016 239.543 142.066 239.226H141.916C141.895 239.022 142.637 239.272 142.774 239.184C142.824 239.184 142.787 239.264 142.778 239.318C143.228 239.168 142.608 239.114 142.745 238.843C142.891 238.889 142.978 239.122 143.124 238.984C143.145 238.984 143.158 238.972 143.17 238.951C143.183 238.922 143.199 238.884 143.216 238.843C143.258 238.739 143.295 238.605 143.341 238.48C143.428 238.218 143.524 237.984 143.803 237.851C143.624 237.901 143.462 237.926 143.499 237.751C143.57 237.63 143.812 237.497 144.028 237.334C144.241 237.176 144.42 236.997 144.27 236.905C144.337 236.872 144.387 236.855 144.424 236.851C144.453 236.672 144.699 236.28 144.47 236.264C145.095 236.039 145.212 235.764 145.245 235.58C145.283 235.389 145.253 235.272 145.903 234.976L146.012 234.826L145.433 234.847V234.843ZM129.258 241.714C129.262 241.689 129.266 241.655 129.27 241.626C129.22 241.739 129.17 241.822 129.108 241.818L129.02 241.514C129.099 241.518 129.191 241.534 129.278 241.522C129.278 241.555 129.274 241.593 129.27 241.626C129.287 241.593 129.303 241.555 129.316 241.518C129.341 241.514 129.366 241.501 129.391 241.489L129.474 241.593C129.42 241.676 129.353 241.73 129.258 241.709V241.714ZM130.333 242.684C130.333 242.684 130.324 242.689 130.32 242.693C130.316 242.68 130.308 242.664 130.303 242.651L130.333 242.689V242.684ZM133.82 247.118L133.858 247.168C133.845 247.209 133.828 247.251 133.816 247.293C133.816 247.234 133.816 247.176 133.816 247.122L133.82 247.118ZM135.016 247.172L135.053 247.126C135.053 247.176 135.053 247.226 135.053 247.276C135.041 247.243 135.028 247.205 135.02 247.168L135.016 247.172ZM126.953 239.226C126.953 239.226 126.953 239.222 126.953 239.218C126.953 239.218 126.953 239.218 126.953 239.226ZM130.145 244.018C130.145 244.018 130.153 244.018 130.158 244.018C130.183 244.176 130.174 244.118 130.145 244.018ZM134.478 249.359C134.478 249.359 134.487 249.339 134.491 249.326L134.474 249.368C134.474 249.368 134.453 249.393 134.441 249.401C134.428 249.393 134.416 249.38 134.408 249.368L134.391 249.326C134.391 249.326 134.399 249.347 134.403 249.359C134.37 249.322 134.337 249.272 134.328 249.201C134.337 249.214 134.349 249.226 134.358 249.239C134.383 249.276 134.403 249.318 134.428 249.351C134.433 249.347 134.437 249.339 134.441 249.334C134.445 249.339 134.449 249.347 134.453 249.351C134.478 249.314 134.499 249.276 134.524 249.239C134.533 249.226 134.545 249.218 134.553 249.201C134.545 249.272 134.512 249.322 134.478 249.359ZM135.524 234.722L135.578 234.776C135.453 234.834 135.487 234.78 135.524 234.722ZM136.699 245.097L136.833 244.934L136.991 245.33C136.928 245.259 136.82 245.18 136.699 245.101V245.097ZM139.77 241.818C139.712 241.822 139.662 241.739 139.608 241.626C139.608 241.659 139.612 241.689 139.62 241.714C139.562 241.726 139.512 241.705 139.47 241.672L139.574 241.547C139.587 241.572 139.599 241.601 139.608 241.626C139.608 241.593 139.603 241.551 139.599 241.514L139.645 241.455C139.741 241.464 139.824 241.468 139.87 241.464L139.766 241.818H139.77Z" fill="#00B14F"/>
<path d="M128.832 242.759L128.986 242.872C128.924 242.809 128.94 242.755 128.936 242.701C128.903 242.735 128.87 242.801 128.832 242.759Z" fill="#00B14F"/>
<path d="M129.725 243.522C129.725 243.447 129.533 243.626 129.562 243.555C129.35 243.634 130.016 243.713 129.725 243.522Z" fill="#00B14F"/>
<path d="M125.12 234.434L124.949 234.347L125.058 234.488L125.12 234.434Z" fill="#00B14F"/>
<path d="M124.79 234.746L124.753 234.476L124.648 234.721C124.686 234.709 124.761 234.688 124.79 234.746Z" fill="#00B14F"/>
<path d="M124.374 236.926C124.445 236.943 124.461 236.909 124.449 236.847C124.391 236.838 124.361 236.863 124.374 236.926Z" fill="#00B14F"/>
<path d="M86.1041 1.24219H86.0041C86.0499 1.25052 86.0874 1.25052 86.1041 1.24219Z" fill="#20BB65"/>
<path d="M85.041 5.41309C85.041 5.41309 85.0535 5.42143 85.0618 5.4256C85.0535 5.42143 85.0493 5.41725 85.041 5.41309Z" fill="#20BB65"/>
<path d="M82.7828 1.29228C82.7828 1.29228 82.7703 1.2881 82.7578 1.28394L82.7828 1.29228Z" fill="#20BB65"/>
<path d="M83.1624 0.613169C83.0208 0.788169 82.5624 0.767346 82.7124 0.988179C82.6583 1.07568 82.7458 1.19234 82.7833 1.29234C83.1208 1.40067 82.7666 1.41319 83.0458 1.52152L82.8458 1.50067C82.9416 1.53817 83.0041 1.57152 82.8958 1.56735L82.8374 1.55484C82.9791 1.61317 82.8874 1.6215 82.9583 1.65067L82.8999 1.6382L82.9208 1.67569L82.8416 1.65484C82.9916 1.734 82.9874 1.784 82.9083 1.809L83.1458 1.859C82.8624 1.89233 83.3416 2.03403 83.0124 2.04653L82.9541 2.03402C83.5541 2.28402 82.4916 2.09651 83.0541 2.34235C82.9833 2.30901 82.9333 2.31736 82.8749 2.30486C82.9291 2.37153 82.9541 2.42985 83.4124 2.55068C83.3958 2.58401 83.2624 2.54235 83.0833 2.50485C83.2833 2.55485 83.3583 2.609 83.3666 2.64233L83.2916 2.60902L83.3374 2.70901L83.7208 2.79238C83.5999 2.80905 83.2541 2.67983 83.3333 2.7465L83.6499 2.82986C83.5708 2.8757 83.0874 2.77986 82.8374 2.7757C82.6416 2.96736 83.3583 3.4632 82.7416 3.5132L82.5041 3.45069C82.1624 3.34653 82.9874 3.6715 82.6708 3.57983L82.8166 3.65486C82.7541 3.64236 82.6833 3.63819 82.6124 3.60069C82.5916 3.62152 82.6458 3.63817 82.7458 3.68817L82.5249 3.64234C82.3291 3.67984 82.7124 3.89235 82.5958 3.96319C82.1291 3.92985 82.4458 4.27986 82.6249 4.49236C83.0583 4.86319 81.6499 4.55485 82.1499 4.95068C82.0999 4.93818 82.1999 4.99652 82.2374 5.00902L82.1249 5.15485C82.1249 5.15485 82.0124 5.3382 82.2666 5.59237C82.5249 5.84237 83.1416 6.1965 84.6458 6.44233L84.7166 6.4757C84.9333 6.4507 84.9999 6.40066 84.6666 6.17983C85.1166 6.35066 84.7458 6.11735 84.8999 6.15069L84.9333 6.16737C84.6166 5.96737 85.2708 6.15483 84.9874 5.9715C85.0208 5.98816 85.1458 6.03819 85.1458 6.05486C85.1083 5.98819 85.0291 5.88818 85.2916 5.98818C85.2624 5.85485 85.4416 5.75486 85.0499 5.52986L85.1208 5.56317C84.8541 5.41734 85.0958 5.4965 84.9708 5.40067C85.0041 5.41317 85.0249 5.41319 85.0374 5.42152C84.7749 5.27569 85.0374 5.28401 84.9333 5.20484L85.1083 5.26735L85.0999 5.17153L85.0499 5.18821C84.5749 5.00488 85.3749 5.23402 85.0833 5.06319C85.1624 5.02569 84.1208 4.60067 84.3791 4.62567C84.1624 4.5215 84.7374 4.77567 84.5791 4.67567C84.8291 4.759 84.7291 4.7507 84.9333 4.80903C84.8291 4.7257 85.2124 4.82983 85.0624 4.7215L85.2583 4.78401C84.9208 4.59651 85.5583 4.74235 85.2291 4.58401C85.0874 4.46318 85.8291 4.72985 85.4666 4.52985L85.7416 4.58819C85.7958 4.57152 85.4208 4.459 85.5624 4.46734C85.7291 4.5215 85.7124 4.46735 85.8624 4.53819C86.1499 4.53819 85.5374 4.25904 86.0166 4.29237C85.6958 4.17154 85.9083 4.1757 85.6666 4.08404C85.8124 4.1257 85.7208 3.9882 86.0166 4.1382C86.0416 4.1507 86.0333 4.15904 85.9791 4.1382L86.1708 4.20483C86.5583 4.25483 85.9999 4.034 86.0749 3.99233C86.0041 3.99233 86.0166 4.02152 85.8874 3.96319L85.9291 3.91736L86.0916 3.9757L86.2124 3.92153L86.0041 3.8757C86.1208 3.86737 86.4708 3.9507 86.1958 3.82153C86.0416 3.75487 85.9083 3.78404 85.8583 3.72154C86.0124 3.70904 86.2458 3.684 86.3249 3.62983C86.0916 3.57567 86.1041 3.559 86.0624 3.52567L86.2624 3.57566C86.0041 3.42566 86.7124 3.66734 86.5083 3.53401L86.6458 3.57566L86.2333 3.44652C85.8541 3.27569 86.6583 3.51737 86.1333 3.30487C86.1583 3.34237 85.6874 3.20486 85.7833 3.19236L85.9749 3.2507C85.9374 3.22154 85.8583 3.19236 85.9041 3.19236C86.0041 3.22986 86.1833 3.27152 86.1583 3.23402L86.3958 3.31321L86.0499 3.16734C86.2708 3.17567 86.0249 3.04654 86.2999 3.09654C86.2999 3.09654 86.4583 3.03821 86.1624 2.94237C86.3458 3.00487 86.4291 2.97153 86.6458 3.0382C86.4416 2.9632 86.2833 2.85486 86.5166 2.87569L86.5416 2.8882C86.7958 2.83404 86.2666 2.63818 86.5666 2.60485C86.3291 2.55901 86.4708 2.53817 86.1666 2.484C85.8916 2.32567 86.8166 2.43404 85.8916 2.20904C85.8499 2.15487 86.1208 2.20068 86.1749 2.18818L86.2208 2.20904C86.1624 2.1132 86.1583 2.08818 86.1916 2.02985C86.1083 1.97985 85.6749 1.89233 85.7874 1.859C85.9583 1.909 85.9291 1.87983 85.9333 1.859C85.9583 1.87567 86.0208 1.89236 86.1416 1.88819C86.0874 1.87569 86.0583 1.86321 86.0291 1.85071C86.0416 1.85071 86.0541 1.85067 86.0708 1.859C86.0166 1.81317 85.9624 1.80901 85.9333 1.82151C85.9083 1.81735 85.8749 1.809 85.8249 1.80483C86.0541 1.81316 85.8249 1.70483 86.1249 1.75483C86.0749 1.63817 85.7833 1.51319 85.6791 1.41319C85.8333 1.42985 85.9666 1.47151 86.0208 1.50484L85.9749 1.43404C86.1958 1.47154 86.0958 1.48819 86.1374 1.51735C86.5041 1.50485 85.8041 1.31321 86.1458 1.27988L85.9749 1.234H86.0041C85.9124 1.21733 85.7874 1.17986 85.7624 1.1632C85.9583 1.17986 86.2041 1.234 86.1999 1.18817C86.3916 1.184 86.1208 1.07988 86.0249 1.02155C85.9874 1.03821 85.8833 1.01735 85.8166 0.996521C85.8166 0.975688 86.0083 0.992373 85.9249 0.963206L86.1874 0.996521C85.9416 0.971521 85.9291 0.904846 85.8249 0.884013C86.0208 0.900679 85.9874 0.938206 86.1291 0.963206C86.1166 0.875706 86.1208 0.921515 86.1083 0.834015C85.9166 0.763181 85.8624 0.809043 85.6374 0.759043C85.5916 0.71321 85.4166 0.654852 85.5791 0.629852L85.3458 0.613169C85.1749 0.521503 85.2041 0.479842 85.4458 0.463175C84.5333 0.092342 83.8916 0.00901483 83.4791 0.000681494C83.0666 -0.00765184 82.8833 0.0631917 82.8833 0.0631917C82.3499 0.184025 83.0124 0.350704 83.1624 0.596537V0.613169Z" fill="#20BB65"/>
<path d="M78.338 16.0338L78.2422 15.9963C78.2755 16.0255 78.313 16.0422 78.338 16.0338Z" fill="#20BB65"/>
<path d="M72.2891 22.5254C72.2891 22.5254 72.2932 22.5379 72.2974 22.5462C72.2974 22.5379 72.2932 22.5296 72.2891 22.5254Z" fill="#20BB65"/>
<path d="M75.0047 14.9171C75.0047 14.9171 74.9964 14.9004 74.9922 14.8921L75.0047 14.9171Z" fill="#20BB65"/>
<path d="M76.3098 13.7797C75.9306 14.0505 75.5098 13.8463 75.3515 14.3213C75.1806 14.4672 75.1098 14.7172 75.0056 14.9172C75.2015 15.2297 74.8181 15.1338 74.9598 15.4255L74.7806 15.3297C74.8265 15.4297 74.8473 15.513 74.7348 15.4713L74.6931 15.4297C74.764 15.5797 74.6473 15.5713 74.6848 15.6463L74.6431 15.6047L74.6098 15.6797L74.5557 15.613C74.6015 15.8005 74.5348 15.8963 74.4098 15.9213L74.5931 16.0755C74.2473 16.0546 74.5681 16.4505 74.1973 16.3755L74.1556 16.3339C74.4598 16.9464 73.5723 16.3255 73.8473 16.9213C73.814 16.8463 73.7473 16.8463 73.7056 16.8046C73.6765 16.938 73.6181 17.0505 73.964 17.3796C73.9015 17.438 73.8098 17.3297 73.6682 17.213C73.8223 17.3547 73.8348 17.4672 73.7973 17.5255L73.7598 17.4463L73.6806 17.6339L73.9931 17.8755C73.8431 17.8755 73.6265 17.5672 73.6306 17.7005L73.8681 17.9213C73.7265 17.9797 73.3098 17.7005 73.0432 17.6339C72.5598 17.9422 72.7348 18.9547 71.9556 18.9255L71.764 18.7713C71.5015 18.5255 72.039 19.2463 71.789 19.0255L71.864 19.1838C71.8056 19.1505 71.7348 19.1296 71.6973 19.0505C71.6473 19.0796 71.689 19.1213 71.7348 19.2297L71.5348 19.1172C71.2557 19.1505 71.4265 19.588 71.1973 19.6922C70.6806 19.5672 70.5973 20.2297 70.5473 20.6172C70.6056 21.3005 69.2682 20.613 69.3682 21.3547C69.3223 21.3255 69.3723 21.4338 69.4015 21.4672L69.0723 21.7005C69.0723 21.7005 68.6931 22.0047 68.6973 22.4547C68.7015 22.9047 69.0806 23.5171 70.639 24.0963L70.6848 24.1588C70.9806 24.1463 71.114 24.0796 70.9598 23.6838C71.3057 24.0171 71.1307 23.5922 71.2723 23.6714L71.2973 23.7047C71.1473 23.3422 71.714 23.7338 71.5848 23.4005C71.6057 23.4338 71.6973 23.5297 71.6765 23.5547C71.7056 23.4422 71.7306 23.2755 71.9265 23.4755C72.0431 23.263 72.3681 23.1338 72.1681 22.7088L72.214 22.7713C72.0681 22.4963 72.2598 22.663 72.2223 22.488C72.2515 22.5088 72.2681 22.5214 72.2806 22.5297C72.139 22.2505 72.439 22.3089 72.4056 22.1672L72.539 22.2963L72.639 22.138L72.564 22.1588C72.2265 21.7755 72.8848 22.2921 72.7515 21.963C72.8848 21.9213 72.189 21.0297 72.4556 21.1214C72.3306 20.9089 72.689 21.4338 72.6265 21.2422C72.814 21.4297 72.714 21.3922 72.8806 21.5255C72.8556 21.3713 73.1765 21.613 73.1306 21.4088L73.2806 21.5547C73.1181 21.1838 73.6682 21.5547 73.4807 21.2297C73.464 21.0047 73.989 21.5922 73.8098 21.1963L74.0515 21.3505C74.1306 21.3338 73.8431 21.0755 73.989 21.1172C74.1098 21.2463 74.1557 21.1505 74.2432 21.2963C74.5598 21.3713 74.2015 20.7797 74.6931 20.9463C74.4806 20.6713 74.7056 20.7338 74.5473 20.5297C74.6598 20.6297 74.7223 20.388 74.8682 20.7047C74.8807 20.7297 74.864 20.7422 74.8223 20.7005L74.9598 20.8547C75.3265 21.0338 74.9682 20.5422 75.0973 20.4922C75.0223 20.4713 75.0015 20.5213 74.9223 20.4005L75.0223 20.338L75.1306 20.4755L75.3223 20.4213L75.1515 20.2922C75.289 20.3047 75.5723 20.5338 75.4181 20.2588C75.3265 20.113 75.1556 20.1213 75.1681 20.0088C75.3515 20.0255 75.6265 20.0547 75.7723 19.9922C75.589 19.838 75.6223 19.8172 75.614 19.7547L75.7681 19.8922C75.664 19.5838 76.139 20.163 76.0765 19.8922L76.1723 20.0005L75.8848 19.6755C75.6806 19.2921 76.2515 19.9172 75.9431 19.4213C75.9265 19.488 75.589 19.1297 75.7056 19.138L75.839 19.288C75.839 19.2297 75.7848 19.163 75.8348 19.1713C75.8973 19.263 76.039 19.3796 76.0556 19.313L76.2098 19.513L76.0181 19.1797C76.2348 19.263 76.1348 18.9755 76.364 19.1422C76.364 19.1422 76.5932 19.0963 76.3973 18.8547C76.514 19.013 76.639 18.9838 76.7848 19.1588C76.6598 18.9755 76.6265 18.7463 76.8348 18.863L76.8473 18.888C77.1682 18.888 76.8556 18.3963 77.1973 18.4463C77.014 18.2922 77.1806 18.3047 76.9348 18.1172C76.8431 17.7672 77.6431 18.263 76.9848 17.5755C77.0056 17.4755 77.2223 17.6463 77.289 17.6421L77.314 17.6921C77.3682 17.513 77.3932 17.4713 77.4932 17.3922C77.464 17.2838 77.139 16.9838 77.2931 16.9713C77.4015 17.113 77.4056 17.0588 77.4348 17.0255C77.4348 17.063 77.4806 17.113 77.6056 17.1505C77.5681 17.1088 77.5515 17.0797 77.539 17.0505C77.5515 17.0588 77.5598 17.063 77.5723 17.0797C77.5723 16.988 77.5223 16.9588 77.4848 16.9671C77.464 16.9463 77.439 16.9297 77.3932 16.9047C77.614 17.0005 77.514 16.7422 77.7473 16.9338C77.8306 16.7255 77.6931 16.4047 77.7181 16.1922C77.8473 16.2797 77.9265 16.4005 77.939 16.4797L77.9765 16.3463C78.1473 16.4922 78.0265 16.4839 78.0348 16.5422C78.4056 16.663 77.9598 16.0713 78.3223 16.1547L78.2098 16.013L78.239 16.0255C78.1681 15.9671 78.0973 15.8547 78.089 15.813C78.2515 15.9214 78.4306 16.1046 78.4765 16.0296C78.664 16.0963 78.5306 15.8213 78.5056 15.6838C78.4515 15.7005 78.3765 15.6171 78.339 15.5588C78.3598 15.5213 78.5265 15.6255 78.4848 15.5464L78.689 15.713C78.489 15.5671 78.5557 15.4547 78.4848 15.3755C78.6515 15.4797 78.5723 15.5338 78.6765 15.6338C78.7681 15.4838 78.7223 15.5588 78.814 15.4088C78.7223 15.213 78.6098 15.263 78.464 15.0839C78.4765 14.988 78.3848 14.813 78.5681 14.8422L78.3681 14.7172C78.3265 14.488 78.4056 14.4339 78.6515 14.5047C78.2765 13.4755 77.8015 13.0339 77.4265 12.838C77.0556 12.6422 76.7806 12.6963 76.7806 12.6963C76.1056 12.6963 76.4931 13.2922 76.3015 13.8047L76.3098 13.7797Z" fill="#20BB65"/>
<path d="M61.5912 31.3425L61.5078 31.2842C61.5328 31.3217 61.562 31.3467 61.5912 31.3425Z" fill="#20BB65"/>
<path d="M58.6255 29.4342C58.6255 29.4342 58.6255 29.4175 58.6172 29.4092V29.4342H58.6255Z" fill="#20BB65"/>
<path d="M60.1879 28.655C59.7504 28.8259 59.392 28.5217 59.1129 28.9425C58.9087 29.0383 58.7712 29.2592 58.6212 29.43C58.7379 29.78 58.3879 29.5967 58.4504 29.9092L58.3004 29.7717C58.3212 29.88 58.3212 29.9633 58.2254 29.8967L58.1962 29.8467C58.2296 30.0092 58.117 29.9717 58.1337 30.055L58.1045 30.005L58.0545 30.0717L58.0171 29.9967C58.0171 30.1925 57.9254 30.2633 57.8004 30.2592L57.942 30.455C57.6129 30.3508 57.8254 30.8092 57.4879 30.6509L57.4587 30.6009C57.6045 31.2717 56.8962 30.4509 57.017 31.0967C57.0004 31.0175 56.9379 31.0009 56.9087 30.9509C56.8504 31.0717 56.7629 31.1717 57.0212 31.5717C56.9462 31.6134 56.8837 31.4842 56.7712 31.3383C56.8837 31.5133 56.8712 31.6259 56.8212 31.6717L56.8045 31.5884L56.6837 31.7509L56.9295 32.0592C56.7837 32.0175 56.6504 31.6717 56.617 31.8009L56.7921 32.0758C56.6379 32.0967 56.3046 31.7258 56.0629 31.5967C55.5171 31.7758 55.442 32.8008 54.6962 32.5883L54.5504 32.3925C54.3546 32.0925 54.7004 32.9175 54.5129 32.6467L54.5462 32.8175C54.5004 32.7717 54.4337 32.73 54.417 32.6467C54.3629 32.6633 54.392 32.7134 54.4129 32.8259L54.2462 32.6675C53.967 32.6342 54.0295 33.1009 53.7837 33.1425C53.3129 32.8967 53.0712 33.5217 52.9295 33.88C52.8212 34.5592 51.6879 33.5675 51.6087 34.3092C51.5712 34.2717 51.5962 34.3883 51.617 34.4258L51.2421 34.5758C51.2421 34.5758 50.8004 34.78 50.6962 35.2175C50.5921 35.655 50.8129 36.3383 52.1837 37.28L52.2129 37.3509C52.5004 37.4092 52.6462 37.3759 52.5962 36.9592C52.8504 37.3675 52.7837 36.9133 52.9045 37.0217L52.9212 37.0592C52.8629 36.6675 53.3212 37.1884 53.2754 36.8342C53.2879 36.8717 53.3504 36.9884 53.3296 37.0092C53.3837 36.9092 53.4462 36.7509 53.592 36.9884C53.7587 36.8092 54.1045 36.7633 54.0129 36.3008L54.042 36.3717C53.967 36.0675 54.1129 36.28 54.1212 36.0967C54.142 36.1259 54.1587 36.1384 54.167 36.1509C54.0962 35.8467 54.3754 35.9758 54.3754 35.83L54.4712 35.9883L54.6087 35.8592H54.5295C54.292 35.405 54.8087 36.0675 54.7587 35.7133C54.9004 35.705 54.4379 34.6717 54.6712 34.8217C54.6004 34.5842 54.8212 35.1842 54.8087 34.98C54.9462 35.2092 54.8587 35.1467 54.9837 35.3175C54.9962 35.1634 55.2504 35.4759 55.2546 35.2634L55.3629 35.4384C55.292 35.0384 55.7379 35.53 55.6337 35.1717C55.6754 34.9467 56.0379 35.6467 55.9629 35.2175L56.1587 35.4259C56.2379 35.43 56.0212 35.1092 56.1587 35.1842C56.2462 35.3384 56.3129 35.255 56.3629 35.4217C56.6504 35.5675 56.4504 34.9092 56.8837 35.1925C56.7462 34.8758 56.9462 34.9884 56.8421 34.7509C56.9254 34.8759 57.0462 34.655 57.1087 34.9967C57.1129 35.0258 57.0962 35.03 57.067 34.98L57.1629 35.1592C57.4754 35.4217 57.2462 34.8592 57.3837 34.8425C57.317 34.805 57.2837 34.8425 57.2379 34.7092L57.3504 34.6717L57.4212 34.83L57.6212 34.8217L57.4879 34.655C57.617 34.7009 57.8337 34.9925 57.7546 34.6842C57.7004 34.5175 57.5337 34.4842 57.5754 34.38C57.7504 34.4425 58.0087 34.5342 58.1629 34.5092C58.0212 34.3134 58.0587 34.3009 58.0671 34.2384L58.1837 34.4092C58.1587 34.0842 58.4754 34.7634 58.4837 34.4884L58.5504 34.6175L58.3504 34.23C58.2421 33.8092 58.6462 34.5508 58.4712 33.9967C58.4379 34.0592 58.2004 33.6259 58.3087 33.6634L58.4004 33.8425C58.4129 33.7842 58.3795 33.705 58.4212 33.7259C58.4587 33.83 58.567 33.9759 58.6004 33.9175L58.7045 34.1508L58.6004 33.78C58.792 33.9134 58.7629 33.6092 58.9462 33.8259C58.9462 33.8259 59.1795 33.8384 59.0462 33.555C59.1212 33.7384 59.2462 33.7383 59.3462 33.9467C59.2671 33.7383 59.292 33.5092 59.467 33.6717V33.7009C59.7837 33.78 59.6004 33.2259 59.9212 33.3592C59.7795 33.1634 59.9379 33.2175 59.7462 32.9759C59.742 32.6134 60.3962 33.2925 59.9254 32.4634C59.9712 32.3717 60.1379 32.5883 60.2046 32.6008L60.2129 32.655C60.3087 32.4967 60.3462 32.4592 60.4629 32.4092C60.4629 32.2967 60.2212 31.9259 60.3712 31.9509C60.442 32.1175 60.4587 32.0634 60.4962 32.0384C60.4879 32.0759 60.5212 32.1342 60.6337 32.2009C60.6087 32.1509 60.6004 32.1175 60.5921 32.0884C60.6004 32.1009 60.6087 32.105 60.6171 32.1217C60.6379 32.03 60.6004 31.9925 60.5587 31.9925C60.5462 31.9675 60.5212 31.9425 60.4879 31.9092C60.6754 32.055 60.6462 31.78 60.8254 32.0258C60.9587 31.8467 60.9045 31.5092 60.9795 31.3092C61.0837 31.4259 61.1295 31.5592 61.1254 31.6384L61.1962 31.5217C61.3254 31.705 61.2129 31.6675 61.2045 31.7259C61.5337 31.9342 61.2462 31.255 61.5796 31.4259L61.5087 31.2592L61.5337 31.2759C61.4796 31.2009 61.4379 31.0758 61.442 31.0342C61.5754 31.18 61.7004 31.4008 61.7629 31.3425C61.9296 31.455 61.867 31.155 61.8754 31.0175C61.817 31.0175 61.7671 30.9217 61.7421 30.855C61.7712 30.8259 61.9045 30.9675 61.8837 30.88L62.042 31.0925C61.8837 30.9008 61.9754 30.8092 61.9295 30.7133C62.0629 30.855 61.9712 30.8884 62.0504 31.0134C62.1754 30.8925 62.1129 30.955 62.2379 30.8342C62.1962 30.6217 62.0795 30.6425 61.9795 30.43C62.017 30.3425 61.9712 30.1467 62.1379 30.2217L61.9754 30.0508C61.9921 29.8175 62.0795 29.7842 62.3004 29.9134C62.192 28.8134 61.8504 28.2634 61.542 27.98C61.2337 27.6967 60.9546 27.6842 60.9546 27.6842C60.3004 27.5259 60.5254 28.2009 60.2087 28.6509L60.1879 28.655Z" fill="#20BB65"/>
<path d="M41.6292 42.1131L41.5625 42.0339C41.5792 42.0756 41.6 42.109 41.6292 42.1131Z" fill="#20BB65"/>
<path d="M40.921 39.1674C40.4543 39.2257 40.1793 38.8466 39.8127 39.1924C39.5918 39.2382 39.4085 39.4257 39.221 39.5549C39.246 39.9216 38.9543 39.6591 38.9376 39.9799L38.8252 39.8091C38.821 39.9174 38.796 40.0007 38.721 39.9132L38.7043 39.8591C38.696 40.0216 38.6001 39.9632 38.596 40.0465L38.5793 39.9924L38.5168 40.0424L38.5002 39.959C38.4502 40.1465 38.346 40.1965 38.2252 40.1632L38.3168 40.3882C38.021 40.2091 38.1168 40.7049 37.8252 40.4715L37.8085 40.4174C37.7918 41.1007 37.296 40.1382 37.2585 40.7966C37.2627 40.7132 37.2043 40.684 37.1876 40.6257C37.1001 40.7299 36.9918 40.8049 37.1502 41.2549C37.0668 41.2757 37.0335 41.1382 36.9627 40.9674C37.0335 41.1632 36.9918 41.2715 36.9293 41.3049V41.2174L36.7751 41.3465L36.9418 41.7049C36.8085 41.6299 36.7585 41.2591 36.7001 41.3841L36.8085 41.6924C36.6543 41.6799 36.4126 41.2382 36.2043 41.0591C35.6251 41.1132 35.3168 42.0965 34.6293 41.7257L34.5293 41.5007C34.4043 41.1674 34.5627 42.0466 34.4377 41.7424V41.9174C34.396 41.8632 34.3377 41.809 34.3418 41.7257C34.2835 41.7299 34.3001 41.7882 34.296 41.9007L34.1668 41.709C33.896 41.6174 33.8543 42.0882 33.6043 42.0799C33.1877 41.7424 32.8127 42.3132 32.6002 42.6424C32.3627 43.2882 31.4168 42.1132 31.196 42.8382C31.1668 42.7966 31.1668 42.9132 31.1835 42.9549L30.7793 43.0424C30.7793 43.0424 30.3002 43.1757 30.121 43.5965C29.9418 44.0174 30.0793 44.7174 31.2793 45.8591L31.296 45.934C31.5668 46.0382 31.7126 46.0299 31.7251 45.609C31.9085 46.0549 31.9126 45.5965 32.0126 45.7257L32.021 45.7632C32.0252 45.3715 32.3835 45.9591 32.396 45.6049C32.4043 45.6424 32.446 45.7674 32.421 45.784C32.4918 45.6965 32.5752 45.5507 32.6752 45.8132C32.8627 45.6716 33.2043 45.6882 33.196 45.2174L33.2127 45.2924C33.1918 44.9799 33.3001 45.2132 33.3376 45.0382C33.3543 45.0715 33.3668 45.0882 33.371 45.1007C33.3585 44.7882 33.6043 44.9715 33.6335 44.8257L33.7001 45.0007L33.8543 44.9007L33.7793 44.884C33.6335 44.3924 34.0127 45.1424 34.0293 44.7882C34.1668 44.809 33.921 43.7049 34.121 43.9007C34.1001 43.6549 34.196 44.2841 34.221 44.0799C34.3085 44.3299 34.2335 44.2507 34.3251 44.4466C34.3668 44.2966 34.5502 44.6549 34.596 44.4507L34.6668 44.6465C34.6793 44.2424 35.0127 44.8174 34.9835 44.4424C35.0668 44.2341 35.2751 44.9924 35.2918 44.5591L35.4377 44.8049C35.5127 44.8257 35.371 44.4632 35.4835 44.5674C35.5377 44.734 35.6168 44.6715 35.6293 44.8424C35.8751 45.0507 35.821 44.3632 36.1793 44.734C36.1126 44.3924 36.2835 44.5507 36.2335 44.2966C36.2877 44.4382 36.4501 44.2465 36.4376 44.5965C36.4376 44.6257 36.4168 44.6257 36.4002 44.5715L36.4543 44.7674C36.696 45.0924 36.6002 44.4924 36.7377 44.5091C36.6793 44.4591 36.6418 44.4882 36.6252 44.3466L36.7418 44.334L36.7751 44.5049L36.971 44.5424L36.8793 44.3507C36.996 44.4257 37.1418 44.7591 37.1293 44.4424C37.1168 44.2716 36.9627 44.1965 37.021 44.1049C37.1752 44.2049 37.4043 44.3549 37.5585 44.3674C37.4668 44.1465 37.5085 44.1424 37.5293 44.0841L37.6002 44.2799C37.6502 43.959 37.8043 44.6924 37.871 44.4257L37.9043 44.5674L37.8002 44.1466C37.7918 43.7132 38.0126 44.5299 37.9668 43.9507C37.921 44.0049 37.7877 43.5299 37.8877 43.5882L37.9377 43.784C37.9627 43.7299 37.946 43.6466 37.9877 43.6757C38.0002 43.7841 38.071 43.9549 38.1168 43.9007L38.1627 44.1507L38.146 43.7674C38.3002 43.9424 38.3418 43.6424 38.4668 43.8965C38.4668 43.8965 38.6918 43.9632 38.6293 43.659C38.6585 43.8507 38.7793 43.8882 38.8293 44.109C38.8043 43.8882 38.8793 43.6716 39.0126 43.8716V43.9007C39.2918 44.0507 39.246 43.4716 39.5252 43.6757C39.4335 43.4507 39.5752 43.5424 39.446 43.2591C39.5293 42.9049 40.0001 43.7215 39.7418 42.8049C39.8085 42.7257 39.921 42.9799 39.9793 43.009V43.0632C40.1085 42.9299 40.1502 42.9049 40.2752 42.8841C40.3002 42.7757 40.1585 42.3591 40.3002 42.4174C40.3293 42.5966 40.3585 42.5465 40.4002 42.534C40.3835 42.5674 40.4002 42.6341 40.4918 42.7257C40.4793 42.6716 40.4793 42.6382 40.4793 42.6049C40.4835 42.6174 40.4918 42.6257 40.496 42.6465C40.5418 42.5632 40.5085 42.5174 40.471 42.5049C40.4626 42.4799 40.4501 42.4465 40.421 42.4049C40.5668 42.5924 40.6043 42.3174 40.721 42.5965C40.8918 42.4549 40.921 42.1049 41.0418 41.934C41.1168 42.0715 41.1251 42.2174 41.1001 42.2882L41.196 42.1882C41.2751 42.3965 41.1752 42.334 41.1543 42.3882C41.421 42.6715 41.3085 41.9382 41.5918 42.184L41.5626 42.0049L41.5835 42.0299C41.5502 41.9424 41.5377 41.809 41.5502 41.7715C41.6418 41.9424 41.7127 42.1882 41.7877 42.1465C41.921 42.2965 41.9335 41.9882 41.9793 41.859C41.921 41.8465 41.896 41.7382 41.8918 41.6674C41.9293 41.6465 42.0252 41.8174 42.0252 41.7257L42.1252 41.9674C42.0168 41.7424 42.1293 41.6799 42.1043 41.5715C42.2002 41.7424 42.1043 41.7507 42.1502 41.8924C42.3002 41.8049 42.2252 41.8507 42.3793 41.7632C42.3918 41.5465 42.271 41.5382 42.2252 41.309C42.2835 41.2299 42.2877 41.034 42.4335 41.1465L42.321 40.9424C42.396 40.7174 42.4877 40.709 42.671 40.8924C42.8377 39.809 42.6377 39.1882 42.4043 38.8382C42.171 38.4882 41.9043 38.4049 41.9043 38.4049C41.3085 38.0882 41.3585 38.7965 40.946 39.1549L40.921 39.1674Z" fill="#20BB65"/>
<path d="M21.0458 50.4094L20.9666 50.3428C20.9916 50.3803 21.0166 50.4094 21.0458 50.4094Z" fill="#20BB65"/>
<path d="M14.7207 55.8008C14.7207 55.8008 14.729 55.8133 14.7332 55.8216C14.7332 55.8133 14.7249 55.8049 14.7207 55.8008Z" fill="#20BB65"/>
<path d="M18.1428 48.3927C18.1428 48.3927 18.1428 48.376 18.1387 48.3677V48.3927H18.1428Z" fill="#20BB65"/>
<path d="M19.8628 47.6175C19.3878 47.7634 19.0336 47.4509 18.7002 47.88C18.4752 47.98 18.3128 48.2092 18.1461 48.3883C18.2503 48.7425 17.8877 48.5675 17.9461 48.8883L17.7919 48.755C17.8128 48.8633 17.8044 48.9508 17.7086 48.8883L17.6794 48.8383C17.7086 49.0008 17.5961 48.9717 17.6086 49.055L17.5753 49.005L17.5211 49.0759L17.4836 49.0008C17.4794 49.2008 17.3878 49.2842 17.2544 49.2884L17.4044 49.48C17.0544 49.3967 17.2877 49.8508 16.9294 49.7217L16.8961 49.6717C17.0711 50.3383 16.2961 49.58 16.4544 50.23C16.4336 50.1509 16.3669 50.1425 16.3294 50.0925C16.2752 50.2258 16.1919 50.3342 16.4877 50.7092C16.4127 50.7634 16.3378 50.6383 16.2128 50.505C16.3461 50.6675 16.3378 50.7842 16.2919 50.8383L16.2669 50.755L16.1544 50.9383L16.4378 51.2175C16.2836 51.1967 16.1086 50.8675 16.0919 51.005L16.3002 51.255C16.1461 51.2967 15.7627 50.98 15.4961 50.8925C14.9336 51.1883 15.0294 52.2342 14.2336 52.2175L14.0419 52.0592C13.7836 51.8134 14.3044 52.5425 14.0544 52.3258L14.1253 52.4883C14.0669 52.455 13.9919 52.4342 13.9586 52.355C13.9044 52.3884 13.9461 52.43 13.9919 52.5383L13.7878 52.43C13.4961 52.4842 13.6628 52.9259 13.4294 53.0509C12.8878 52.9675 12.8128 53.6842 12.7919 54.0842C12.9169 54.7675 11.4669 54.3008 11.6628 55.0592C11.6128 55.0425 11.6794 55.1425 11.7128 55.1675L11.4169 55.4842C11.4169 55.4842 11.0836 55.8925 11.1794 56.3467C11.2753 56.8092 11.8127 57.2633 13.4419 57.5092L13.5003 57.5592C13.7753 57.4925 13.8878 57.4134 13.6544 57.0634C14.0586 57.3259 13.7961 56.9509 13.9503 57.005L13.9794 57.03C13.7586 56.705 14.3836 57.0008 14.1919 56.705C14.2211 56.73 14.3211 56.8134 14.3128 56.8425C14.3169 56.7342 14.3127 56.5717 14.5336 56.7384C14.6044 56.5217 14.8919 56.3758 14.6336 55.9883L14.6877 56.0467C14.5044 55.7967 14.7169 55.9383 14.6586 55.7758C14.6878 55.7967 14.7086 55.8009 14.7211 55.8134C14.5461 55.555 14.8461 55.5925 14.7961 55.455L14.9378 55.5717L15.0169 55.4133L14.9461 55.4342C14.5752 55.08 15.2711 55.5467 15.1044 55.2342C15.2294 55.1925 14.4753 54.3467 14.7461 54.4217C14.6086 54.2175 14.9961 54.7217 14.9211 54.5342C15.1169 54.7133 15.0169 54.6759 15.1878 54.805C15.1544 54.655 15.4836 54.8883 15.4211 54.6883L15.5752 54.8258C15.3961 54.4675 15.9503 54.8258 15.7503 54.5133C15.7253 54.2925 16.2544 54.8758 16.0669 54.4883L16.3044 54.6467C16.3794 54.6342 16.0919 54.3717 16.2378 54.4217C16.3586 54.5508 16.4002 54.4592 16.4877 54.6092C16.7877 54.7009 16.4336 54.105 16.9086 54.305C16.7044 54.0258 16.9169 54.105 16.7669 53.8925C16.8753 53.9967 16.9336 53.7675 17.0711 54.0842C17.0836 54.1092 17.0669 54.1175 17.0253 54.0759L17.1544 54.2342C17.4961 54.4384 17.1628 53.9383 17.2878 53.905C17.2169 53.8758 17.1961 53.9217 17.1253 53.7967L17.2211 53.7467L17.3211 53.8883L17.5044 53.8592L17.3461 53.7134C17.4752 53.7425 17.7336 53.9967 17.6003 53.7134C17.5211 53.5592 17.3544 53.5467 17.3753 53.4425C17.5503 53.4842 17.8086 53.5467 17.9503 53.5092C17.7878 53.3342 17.8169 53.3175 17.8169 53.2592L17.9544 53.4134C17.8753 53.1009 18.2878 53.73 18.2461 53.4675L18.3294 53.5883L18.0794 53.23C17.9169 52.8342 18.4044 53.5217 18.1586 52.9967C18.1378 53.0592 17.8503 52.6592 17.9586 52.6842L18.0711 52.8508C18.0711 52.7925 18.0294 52.7217 18.0752 52.7384C18.1252 52.8384 18.2503 52.9717 18.2711 52.9092L18.4003 53.1258L18.2503 52.7717C18.4503 52.8884 18.3836 52.5967 18.5836 52.8008C18.5836 52.8008 18.8044 52.8008 18.6461 52.5342C18.7377 52.7092 18.8544 52.705 18.9711 52.9008C18.8753 52.7008 18.8711 52.48 19.0544 52.6342L19.0627 52.6592C19.3586 52.73 19.1377 52.1967 19.4544 52.3258C19.3044 52.1342 19.4586 52.1884 19.2586 51.9509C19.2336 51.5925 19.8919 52.2633 19.4002 51.4467C19.4419 51.355 19.6128 51.5717 19.6753 51.5884L19.6877 51.6425C19.7752 51.4884 19.8086 51.455 19.9169 51.405C19.9169 51.2967 19.6753 50.9259 19.8253 50.9509C19.8961 51.1175 19.9127 51.0633 19.9461 51.0425C19.9419 51.08 19.9711 51.1383 20.0794 51.205C20.0544 51.155 20.0461 51.1217 20.0378 51.0925C20.0461 51.105 20.0544 51.1134 20.0628 51.1259C20.0836 51.0384 20.0461 50.9967 20.0044 50.9967C19.9919 50.9717 19.9711 50.9467 19.9336 50.9092C20.1169 51.0592 20.0877 50.7883 20.2586 51.0383C20.3877 50.8717 20.3419 50.5342 20.4211 50.3425C20.5211 50.4634 20.5586 50.6008 20.5502 50.68L20.6211 50.5675C20.7378 50.7592 20.6336 50.7133 20.6252 50.7717C20.9336 51.0008 20.6794 50.3133 20.9961 50.505L20.9336 50.3384L20.9586 50.3592C20.9086 50.28 20.8753 50.1508 20.8794 50.1133C21.0003 50.2675 21.1127 50.4967 21.1752 50.4425C21.3252 50.5675 21.2836 50.2675 21.3044 50.1342C21.2461 50.13 21.2044 50.03 21.1878 49.9592C21.2211 49.9342 21.3378 50.0883 21.3253 50.0008L21.4628 50.2259C21.3211 50.0217 21.4211 49.9425 21.3794 49.8425C21.4961 49.9967 21.4086 50.0217 21.4753 50.1508C21.6044 50.0467 21.5419 50.0967 21.6711 49.9925C21.6503 49.7758 21.5336 49.7842 21.4544 49.5634C21.4961 49.48 21.4753 49.2842 21.6294 49.3758L21.4877 49.1884C21.5294 48.9592 21.6211 48.9342 21.8211 49.0925C21.8502 47.9925 21.6044 47.3883 21.3336 47.0675C21.0628 46.7467 20.7753 46.705 20.7753 46.705C20.1128 46.48 20.2336 47.1925 19.8503 47.63L19.8628 47.6175Z" fill="#20BB65"/>
<path d="M9.0353 66.5255L8.93945 66.5088C8.98112 66.5213 9.01864 66.5296 9.0353 66.5255Z" fill="#20BB65"/>
<path d="M7.91406 70.3545C7.91406 70.3545 7.92656 70.3587 7.93489 70.3628C7.92656 70.3587 7.9224 70.3545 7.91406 70.3545Z" fill="#20BB65"/>
<path d="M5.73958 66.0965C5.73958 66.0965 5.72708 66.0882 5.71875 66.084L5.73958 66.0965Z" fill="#20BB65"/>
<path d="M6.25552 65.3757C6.07219 65.5465 5.62637 65.459 5.72637 65.7381C5.65554 65.8298 5.71802 65.9756 5.73886 66.0965C6.05969 66.2548 5.70135 66.234 5.96385 66.3798L5.76803 66.3423C5.85969 66.3923 5.91387 66.4382 5.80554 66.4257L5.75137 66.4048C5.8847 66.4798 5.78887 66.4882 5.85554 66.5257L5.80137 66.5048L5.81385 66.5465L5.73469 66.5131C5.87219 66.6131 5.86385 66.6673 5.78051 66.6923L6.01387 66.7631C5.72637 66.7798 6.19304 66.9673 5.85554 66.9631L5.80137 66.9465C6.37637 67.2507 5.33053 66.9965 5.87219 67.2923C5.80553 67.2548 5.75137 67.2631 5.6972 67.2423C5.7472 67.3173 5.76387 67.384 6.21803 67.5257C6.20137 67.5632 6.06802 67.5132 5.88885 67.4673C6.08885 67.5298 6.1597 67.5882 6.16387 67.6215L6.09301 67.584L6.1347 67.6923L6.51385 67.7882C6.39302 67.8007 6.05136 67.6632 6.13053 67.734L6.44303 67.8257C6.36386 67.8715 5.88052 67.7673 5.63052 67.759C5.41802 67.9798 6.1347 68.4923 5.51387 68.5715L5.27636 68.5132C4.93053 68.4173 5.76385 68.7256 5.44719 68.6423L5.59721 68.7173C5.53471 68.709 5.46387 68.7048 5.38887 68.6715C5.36804 68.6923 5.42218 68.709 5.52218 68.759L5.30136 68.7257C5.10553 68.7798 5.49303 68.984 5.38053 69.0715C4.90553 69.0798 5.23887 69.4381 5.4347 69.6423C5.8972 69.9798 4.4597 69.8381 4.9972 70.2006C4.9472 70.1923 5.05136 70.2423 5.09303 70.2506L4.99303 70.4215C4.99303 70.4215 4.90135 70.6382 5.18885 70.8632C5.47635 71.0882 6.14719 71.3131 7.66803 71.3548L7.74302 71.3798C7.95136 71.3298 8.0097 71.2798 7.6472 71.109C8.11387 71.2215 7.71802 71.0423 7.87219 71.059L7.9097 71.0715C7.56803 70.9173 8.23887 71.0256 7.9347 70.884C7.9722 70.8965 8.09718 70.9298 8.10135 70.9465C8.05552 70.8881 7.96802 70.8048 8.23886 70.8715C8.19719 70.7506 8.35552 70.6465 7.94302 70.4631L8.01804 70.4882C7.73887 70.3715 7.98886 70.4298 7.85136 70.3465C7.88886 70.3548 7.90552 70.359 7.92219 70.359C7.64719 70.2423 7.90969 70.2298 7.79719 70.1631L7.97636 70.209L7.95553 70.1173L7.9097 70.1381C7.4222 69.9923 8.2347 70.1632 7.93053 70.0173C8.00553 69.9798 6.93886 69.6215 7.19719 69.634C6.97636 69.5423 7.56385 69.7631 7.39718 69.6715C7.65552 69.7423 7.55135 69.734 7.75968 69.784C7.64718 69.709 8.03886 69.7923 7.88053 69.6965L8.08052 69.7507C7.73469 69.584 8.37637 69.7048 8.04304 69.5673C7.8972 69.4548 8.6472 69.6923 8.27637 69.5131L8.55136 69.5632C8.60136 69.5465 8.22636 69.4465 8.36802 69.4548C8.53886 69.5048 8.51385 69.4548 8.67218 69.5173C8.95968 69.5215 8.33886 69.2632 8.81386 69.2965C8.48886 69.1798 8.70137 69.1881 8.45553 69.1006C8.60137 69.1381 8.50551 69.0131 8.80135 69.1548C8.82635 69.1673 8.81803 69.1756 8.76386 69.1548L8.95554 69.2173C9.33887 69.2715 8.78052 69.059 8.85552 69.0215C8.78468 69.0215 8.7972 69.0423 8.66804 68.9923L8.70969 68.9506L8.8722 69.009L8.98885 68.9631L8.78052 68.9131C8.89719 68.909 9.24719 68.9965 8.96802 68.8715C8.81386 68.8048 8.68469 68.8257 8.63053 68.7673C8.78469 68.759 9.01385 68.7507 9.09302 68.709C8.86385 68.6465 8.87635 68.634 8.83469 68.6006L9.03471 68.659C8.77637 68.509 9.48052 68.7673 9.28052 68.6381L9.41803 68.684L9.00968 68.5423C8.63468 68.3631 9.43052 68.634 8.91386 68.409C8.93886 68.4465 8.47218 68.2881 8.56802 68.284L8.75552 68.3507C8.72219 68.3215 8.64303 68.2923 8.68469 68.2923C8.78469 68.334 8.95968 68.384 8.93468 68.3465L9.16802 68.4381L8.83052 68.284C9.04718 68.309 8.8097 68.1715 9.0847 68.2381C9.0847 68.2381 9.24303 68.2007 8.95137 68.0882C9.13053 68.1632 9.21385 68.1381 9.42635 68.2173C9.22635 68.134 9.07219 68.0173 9.30135 68.0631L9.32635 68.0756C9.58052 68.0548 9.06803 67.8215 9.36386 67.8298C9.1347 67.759 9.2722 67.759 8.97637 67.6757C8.71387 67.4965 9.62218 67.7131 8.72635 67.3923C8.68885 67.3381 8.95554 67.4132 9.00554 67.409L9.05136 67.434C9.00136 67.3381 8.99721 67.3132 9.03471 67.2673C8.95554 67.2132 8.53469 67.0715 8.65135 67.0548C8.81385 67.1257 8.78887 67.0965 8.79303 67.0756C8.81387 67.0965 8.87636 67.1173 8.99719 67.134C8.94719 67.1131 8.91803 67.0965 8.89303 67.084C8.90553 67.084 8.91802 67.0923 8.93468 67.0965C8.88468 67.0465 8.83052 67.034 8.80552 67.0423C8.78052 67.034 8.74719 67.0256 8.70135 67.0131C8.92635 67.0506 8.71387 66.9215 9.00137 67.0131C8.96387 66.9006 8.68886 66.7382 8.60553 66.6257C8.75553 66.6673 8.88054 66.7256 8.93054 66.7673L8.89303 66.6965C9.10553 66.7673 9.00552 66.7673 9.04302 66.7965C9.40552 66.8465 8.74304 66.5507 9.0847 66.584L8.9222 66.5131H8.95137C8.86387 66.4881 8.74721 66.4298 8.72221 66.409C8.90971 66.459 9.14719 66.5548 9.14719 66.5131C9.33469 66.5465 9.0847 66.4007 9.00137 66.3298C8.96387 66.3382 8.86385 66.2965 8.80135 66.2673C8.80135 66.2465 8.98886 66.3006 8.91386 66.259L9.16387 66.3423C8.92637 66.2715 8.92635 66.209 8.83052 66.1673C9.01802 66.2215 8.98052 66.2506 9.11802 66.3006C9.11802 66.2215 9.11802 66.259 9.11802 66.1798C8.94302 66.0756 8.88054 66.1048 8.66804 66.0132C8.63054 65.9632 8.4722 65.8673 8.6347 65.8798L8.40971 65.8173C8.25971 65.6923 8.30137 65.6632 8.53887 65.6965C7.73054 65.1382 7.13053 64.8881 6.73053 64.7881C6.33053 64.6881 6.13053 64.7298 6.13053 64.7298C5.57219 64.759 6.17637 65.0923 6.26803 65.3882L6.25552 65.3757Z" fill="#20BB65"/>
</svg>
