<svg width="135" height="12" viewBox="0 0 135 12" fill="none" xmlns="http://www.w3.org/2000/svg">
<g opacity="0.57">
<path d="M0.577148 10.1837C0.994698 10.4045 1.71179 10.4254 2.39258 10.4629C1.87064 10.2504 1.3124 10.1587 0.577148 10.1837Z" fill="#43C554"/>
<path d="M2.40412 10.4668H2.41298C2.40412 10.4668 2.39528 10.4668 2.39085 10.4668C2.39528 10.4668 2.39969 10.4668 2.40412 10.471V10.4668Z" fill="#43C554"/>
<path d="M134.483 0.429199C134.315 0.433366 134.12 0.437545 133.925 0.441711C134.111 0.450045 134.302 0.450033 134.483 0.429199Z" fill="#43C554"/>
<path d="M35.3828 11.0834L35.4871 10.7167C37.1029 10.7084 35.9591 11.1376 37.4523 11.0459C38.0378 10.5251 39.935 11.0959 40.4478 10.8209C40.4342 10.8625 41.1694 10.8792 41.1195 11.0417C41.3419 10.7584 41.8729 10.9751 42.3313 10.9043C42.4992 10.8251 42.2088 10.8209 42.0817 10.7334L43.1392 10.6334C43.5522 10.7251 43.652 10.8917 43.2073 10.9209C45.9667 11.0209 59.2239 11.2792 62.1967 11.1376C61.8154 10.9251 60.8941 11.0709 60.5491 10.7334C61.3343 10.5459 61.7065 10.8 62.0514 10.6C62.3555 11.1 63.7806 10.7167 64.3752 11.225L64.6021 10.9417L64.9924 11.1126C68.4508 10.8168 65.7821 10.9667 68.8457 11.0334C70.6203 10.9876 71.4645 10.5959 72.4493 10.7417C72.3041 10.7417 71.9092 10.5668 72.3722 10.4918C72.4493 10.7418 73.5976 10.3126 73.8199 10.5626C74.2693 10.5293 75.7261 10.5626 75.236 10.2209C75.4856 10.3917 76.7837 10.4584 76.0121 10.6042C76.4524 10.6125 76.8744 10.6626 77.1921 10.5876L76.6294 10.4918C78.1135 10.4418 78.9213 10.7042 79.8835 10.3959L79.3343 10.2626C80.2194 10.2418 80.9637 10.2126 81.3086 10.5501L80.4009 10.6543C81.8714 10.6459 82.7564 10.6209 83.9818 10.4418L83.5461 10.4334C85.1074 10.0959 93.2723 9.81258 94.7065 9.39174L94.0439 9.13346L95.2784 8.91262C95.1331 8.91262 94.6838 9.75838 94.5613 9.67505C97.2118 9.65005 110.995 9.43759 113.442 9.61259C114.431 9.75426 113.619 10.0251 113.61 10.0668C114.812 9.96679 114.127 9.79175 115.148 9.81258C115.425 9.85841 115.089 10.0168 114.935 10.0543C115.384 10.0251 115.797 10.1126 115.834 9.99172C115.275 9.89589 115.511 9.57505 115.275 9.36255L116.592 9.38757L116.533 9.59174C116.828 9.5959 117.277 9.03337 118.566 9.1417C120.744 9.2292 123.109 9.15426 125.301 9.20009C125.269 9.32093 124.806 9.39588 124.348 9.46672C124.643 9.47088 125.088 9.44178 125.36 9.52928C124.829 9.31261 126.277 9.38341 125.864 9.29175C127.466 8.79175 129.545 9.24594 130.961 8.90428C131.083 8.45428 133.988 1.19176 133.988 0.658427C134.428 0.66676 134.864 0.675053 135 0.720886C134.887 0.595886 134.024 0.537545 133.561 0.608378L133.484 0.895955C132.427 0.995955 133.234 0.725077 132.204 0.745911C132.15 0.512577 133.098 0.462581 133.933 0.437581C133.18 0.412581 132.431 0.241703 132.123 0.49587C131.415 0.400037 132.2 0.208398 131.351 0.108398C130.743 0.179232 129.949 0.408455 129.25 0.270955L129.263 0.229248C127.57 -0.0124186 126.672 0.587598 125.12 0.350098L125.287 0.270955C124.738 0.137622 123.663 0.316797 122.673 0.17513C122.955 0.220964 123.2 0.391732 122.605 0.420898C121.47 0.275065 120.694 0.420927 119.864 0.24176L119.07 0.470947C115.117 0.429281 99.5038 0.766801 95.5325 0.804301L95.6868 0.766764C89.6369 0.887598 77.2148 0.87511 70.9652 1.19594C69.9985 0.970943 68.6641 1.02509 67.6566 0.962585C68.2194 1.05425 68.0242 1.21679 67.5885 1.20846C64.5159 1.18346 67.3797 1.36257 64.2708 1.46257C60.6899 1.67507 46.9879 1.4459 43.8109 1.25423C42.1044 1.58757 39.9712 1.33755 38.301 1.55005L38.469 1.47091C36.6717 1.59591 26.5053 1.29596 24.4175 1.41679L24.6989 1.46257C22.879 1.6709 23.1286 1.30844 21.6898 1.19594C21.8805 1.56678 20.3192 1.78343 19.7247 1.80843L19.7474 1.72512C18.8487 1.78762 16.82 2.11254 15.3358 2.16671L15.3948 1.96254C14.1603 2.18338 11.8366 2.09176 10.947 2.11676C8.9183 2.03343 5.78215 1.6792 3.06808 1.9542L1.31165 1.37508L1.05295 1.43337C1.05295 1.43337 -1.76551 8.45845 1.81997 9.95428L1.76096 10.1584L2.46898 10.1334C3.3177 10.2334 3.71255 9.99589 3.65354 10.2001L2.48713 10.1751C3.34038 10.2335 2.74584 10.3418 2.41906 10.4584C2.77761 10.4793 3.12254 10.5001 3.40847 10.5626C3.5764 10.4834 3.28593 10.4792 3.14977 10.4334C3.60817 10.3626 4.24812 10.1709 4.8109 10.2626C5.68685 10.2793 4.86536 10.5917 5.88654 10.6125C11.2738 10.7667 16.4932 11.0001 21.9395 10.9501C22.062 11.0334 21.9168 11.0334 21.7579 11.0709C23.3964 10.9834 24.8578 11.0125 26.351 10.9209C26.764 11.0125 26.8775 11.1376 27 11.221C26.7549 11.0501 35.2466 11.0293 35.3828 11.0751V11.0834Z" fill="#43C554"/>
</g>
</svg>
